G04 #@! TF.GenerationSoftware,KiCad,Pcbnew,(5.1.9)-1*
G04 #@! TF.CreationDate,2021-05-11T09:04:56+02:00*
G04 #@! TF.ProjectId,SIOMv01,53494f4d-7630-4312-9e6b-696361645f70,rev?*
G04 #@! TF.SameCoordinates,Original*
G04 #@! TF.FileFunction,Paste,Top*
G04 #@! TF.FilePolarity,Positive*
%FSLAX46Y46*%
G04 Gerber Fmt 4.6, Leading zero omitted, Abs format (unit mm)*
G04 Created by KiCad (PCBNEW (5.1.9)-1) date 2021-05-11 09:04:56*
%MOMM*%
%LPD*%
G01*
G04 APERTURE LIST*
%ADD10R,1.800000X2.500000*%
%ADD11R,1.060000X0.650000*%
%ADD12R,2.790000X0.740000*%
%ADD13C,0.100000*%
%ADD14R,1.400000X1.200000*%
%ADD15R,1.200000X0.400000*%
%ADD16R,1.500000X2.000000*%
%ADD17R,3.800000X2.000000*%
%ADD18R,1.550000X1.300000*%
%ADD19R,0.900000X0.800000*%
%ADD20R,0.800000X0.900000*%
%ADD21R,0.700000X0.600000*%
%ADD22R,0.600000X0.700000*%
%ADD23R,0.900000X1.200000*%
%ADD24R,1.200000X0.900000*%
G04 APERTURE END LIST*
G36*
G01*
X58611999Y-168871200D02*
X63562001Y-168871200D01*
G75*
G02*
X63812000Y-169121199I0J-249999D01*
G01*
X63812000Y-170546201D01*
G75*
G02*
X63562001Y-170796200I-249999J0D01*
G01*
X58611999Y-170796200D01*
G75*
G02*
X58362000Y-170546201I0J249999D01*
G01*
X58362000Y-169121199D01*
G75*
G02*
X58611999Y-168871200I249999J0D01*
G01*
G37*
G36*
G01*
X58611999Y-162096200D02*
X63562001Y-162096200D01*
G75*
G02*
X63812000Y-162346199I0J-249999D01*
G01*
X63812000Y-163771201D01*
G75*
G02*
X63562001Y-164021200I-249999J0D01*
G01*
X58611999Y-164021200D01*
G75*
G02*
X58362000Y-163771201I0J249999D01*
G01*
X58362000Y-162346199D01*
G75*
G02*
X58611999Y-162096200I249999J0D01*
G01*
G37*
D10*
X59182000Y-83667600D03*
X59182000Y-87667600D03*
D11*
X74012000Y-82713800D03*
X74012000Y-84613800D03*
X71812000Y-84613800D03*
X71812000Y-83663800D03*
X71812000Y-82713800D03*
G36*
G01*
X76119400Y-82265200D02*
X75569400Y-82265200D01*
G75*
G02*
X75369400Y-82065200I0J200000D01*
G01*
X75369400Y-81665200D01*
G75*
G02*
X75569400Y-81465200I200000J0D01*
G01*
X76119400Y-81465200D01*
G75*
G02*
X76319400Y-81665200I0J-200000D01*
G01*
X76319400Y-82065200D01*
G75*
G02*
X76119400Y-82265200I-200000J0D01*
G01*
G37*
G36*
G01*
X76119400Y-83915200D02*
X75569400Y-83915200D01*
G75*
G02*
X75369400Y-83715200I0J200000D01*
G01*
X75369400Y-83315200D01*
G75*
G02*
X75569400Y-83115200I200000J0D01*
G01*
X76119400Y-83115200D01*
G75*
G02*
X76319400Y-83315200I0J-200000D01*
G01*
X76319400Y-83715200D01*
G75*
G02*
X76119400Y-83915200I-200000J0D01*
G01*
G37*
G36*
G01*
X76119400Y-85464600D02*
X75569400Y-85464600D01*
G75*
G02*
X75369400Y-85264600I0J200000D01*
G01*
X75369400Y-84864600D01*
G75*
G02*
X75569400Y-84664600I200000J0D01*
G01*
X76119400Y-84664600D01*
G75*
G02*
X76319400Y-84864600I0J-200000D01*
G01*
X76319400Y-85264600D01*
G75*
G02*
X76119400Y-85464600I-200000J0D01*
G01*
G37*
G36*
G01*
X76119400Y-87114600D02*
X75569400Y-87114600D01*
G75*
G02*
X75369400Y-86914600I0J200000D01*
G01*
X75369400Y-86514600D01*
G75*
G02*
X75569400Y-86314600I200000J0D01*
G01*
X76119400Y-86314600D01*
G75*
G02*
X76319400Y-86514600I0J-200000D01*
G01*
X76319400Y-86914600D01*
G75*
G02*
X76119400Y-87114600I-200000J0D01*
G01*
G37*
G36*
G01*
X73056800Y-86584200D02*
X73056800Y-86034200D01*
G75*
G02*
X73256800Y-85834200I200000J0D01*
G01*
X73656800Y-85834200D01*
G75*
G02*
X73856800Y-86034200I0J-200000D01*
G01*
X73856800Y-86584200D01*
G75*
G02*
X73656800Y-86784200I-200000J0D01*
G01*
X73256800Y-86784200D01*
G75*
G02*
X73056800Y-86584200I0J200000D01*
G01*
G37*
G36*
G01*
X71406800Y-86584200D02*
X71406800Y-86034200D01*
G75*
G02*
X71606800Y-85834200I200000J0D01*
G01*
X72006800Y-85834200D01*
G75*
G02*
X72206800Y-86034200I0J-200000D01*
G01*
X72206800Y-86584200D01*
G75*
G02*
X72006800Y-86784200I-200000J0D01*
G01*
X71606800Y-86784200D01*
G75*
G02*
X71406800Y-86584200I0J200000D01*
G01*
G37*
G36*
G01*
X69780200Y-86584200D02*
X69780200Y-86034200D01*
G75*
G02*
X69980200Y-85834200I200000J0D01*
G01*
X70380200Y-85834200D01*
G75*
G02*
X70580200Y-86034200I0J-200000D01*
G01*
X70580200Y-86584200D01*
G75*
G02*
X70380200Y-86784200I-200000J0D01*
G01*
X69980200Y-86784200D01*
G75*
G02*
X69780200Y-86584200I0J200000D01*
G01*
G37*
G36*
G01*
X68130200Y-86584200D02*
X68130200Y-86034200D01*
G75*
G02*
X68330200Y-85834200I200000J0D01*
G01*
X68730200Y-85834200D01*
G75*
G02*
X68930200Y-86034200I0J-200000D01*
G01*
X68930200Y-86584200D01*
G75*
G02*
X68730200Y-86784200I-200000J0D01*
G01*
X68330200Y-86784200D01*
G75*
G02*
X68130200Y-86584200I0J200000D01*
G01*
G37*
G36*
G01*
X72053400Y-80573200D02*
X72053400Y-81123200D01*
G75*
G02*
X71853400Y-81323200I-200000J0D01*
G01*
X71453400Y-81323200D01*
G75*
G02*
X71253400Y-81123200I0J200000D01*
G01*
X71253400Y-80573200D01*
G75*
G02*
X71453400Y-80373200I200000J0D01*
G01*
X71853400Y-80373200D01*
G75*
G02*
X72053400Y-80573200I0J-200000D01*
G01*
G37*
G36*
G01*
X73703400Y-80573200D02*
X73703400Y-81123200D01*
G75*
G02*
X73503400Y-81323200I-200000J0D01*
G01*
X73103400Y-81323200D01*
G75*
G02*
X72903400Y-81123200I0J200000D01*
G01*
X72903400Y-80573200D01*
G75*
G02*
X73103400Y-80373200I200000J0D01*
G01*
X73503400Y-80373200D01*
G75*
G02*
X73703400Y-80573200I0J-200000D01*
G01*
G37*
G36*
G01*
X50899200Y-94808800D02*
X50899200Y-96808800D01*
G75*
G02*
X50649200Y-97058800I-250000J0D01*
G01*
X46749200Y-97058800D01*
G75*
G02*
X46499200Y-96808800I0J250000D01*
G01*
X46499200Y-94808800D01*
G75*
G02*
X46749200Y-94558800I250000J0D01*
G01*
X50649200Y-94558800D01*
G75*
G02*
X50899200Y-94808800I0J-250000D01*
G01*
G37*
G36*
G01*
X59299200Y-94808800D02*
X59299200Y-96808800D01*
G75*
G02*
X59049200Y-97058800I-250000J0D01*
G01*
X55149200Y-97058800D01*
G75*
G02*
X54899200Y-96808800I0J250000D01*
G01*
X54899200Y-94808800D01*
G75*
G02*
X55149200Y-94558800I250000J0D01*
G01*
X59049200Y-94558800D01*
G75*
G02*
X59299200Y-94808800I0J-250000D01*
G01*
G37*
G36*
G01*
X69004600Y-83417600D02*
X69004600Y-83917600D01*
G75*
G02*
X68779600Y-84142600I-225000J0D01*
G01*
X68329600Y-84142600D01*
G75*
G02*
X68104600Y-83917600I0J225000D01*
G01*
X68104600Y-83417600D01*
G75*
G02*
X68329600Y-83192600I225000J0D01*
G01*
X68779600Y-83192600D01*
G75*
G02*
X69004600Y-83417600I0J-225000D01*
G01*
G37*
G36*
G01*
X70554600Y-83417600D02*
X70554600Y-83917600D01*
G75*
G02*
X70329600Y-84142600I-225000J0D01*
G01*
X69879600Y-84142600D01*
G75*
G02*
X69654600Y-83917600I0J225000D01*
G01*
X69654600Y-83417600D01*
G75*
G02*
X69879600Y-83192600I225000J0D01*
G01*
X70329600Y-83192600D01*
G75*
G02*
X70554600Y-83417600I0J-225000D01*
G01*
G37*
D12*
X82039000Y-120269000D03*
X86109000Y-120269000D03*
X82039000Y-121539000D03*
X86109000Y-121539000D03*
X82039000Y-122809000D03*
X86109000Y-122809000D03*
X82039000Y-124079000D03*
X86109000Y-124079000D03*
X82039000Y-125349000D03*
X86109000Y-125349000D03*
X82039000Y-126619000D03*
X86109000Y-126619000D03*
X82039000Y-127889000D03*
X86109000Y-127889000D03*
G36*
G01*
X84143000Y-150372000D02*
X84143000Y-150872000D01*
G75*
G02*
X83918000Y-151097000I-225000J0D01*
G01*
X83468000Y-151097000D01*
G75*
G02*
X83243000Y-150872000I0J225000D01*
G01*
X83243000Y-150372000D01*
G75*
G02*
X83468000Y-150147000I225000J0D01*
G01*
X83918000Y-150147000D01*
G75*
G02*
X84143000Y-150372000I0J-225000D01*
G01*
G37*
G36*
G01*
X85693000Y-150372000D02*
X85693000Y-150872000D01*
G75*
G02*
X85468000Y-151097000I-225000J0D01*
G01*
X85018000Y-151097000D01*
G75*
G02*
X84793000Y-150872000I0J225000D01*
G01*
X84793000Y-150372000D01*
G75*
G02*
X85018000Y-150147000I225000J0D01*
G01*
X85468000Y-150147000D01*
G75*
G02*
X85693000Y-150372000I0J-225000D01*
G01*
G37*
G36*
G01*
X82794000Y-160297500D02*
X81544000Y-160297500D01*
G75*
G02*
X81294000Y-160047500I0J250000D01*
G01*
X81294000Y-159122500D01*
G75*
G02*
X81544000Y-158872500I250000J0D01*
G01*
X82794000Y-158872500D01*
G75*
G02*
X83044000Y-159122500I0J-250000D01*
G01*
X83044000Y-160047500D01*
G75*
G02*
X82794000Y-160297500I-250000J0D01*
G01*
G37*
G36*
G01*
X82794000Y-163272500D02*
X81544000Y-163272500D01*
G75*
G02*
X81294000Y-163022500I0J250000D01*
G01*
X81294000Y-162097500D01*
G75*
G02*
X81544000Y-161847500I250000J0D01*
G01*
X82794000Y-161847500D01*
G75*
G02*
X83044000Y-162097500I0J-250000D01*
G01*
X83044000Y-163022500D01*
G75*
G02*
X82794000Y-163272500I-250000J0D01*
G01*
G37*
G36*
G01*
X105134500Y-72030000D02*
X104034500Y-72030000D01*
G75*
G02*
X103784500Y-71780000I0J250000D01*
G01*
X103784500Y-69280000D01*
G75*
G02*
X104034500Y-69030000I250000J0D01*
G01*
X105134500Y-69030000D01*
G75*
G02*
X105384500Y-69280000I0J-250000D01*
G01*
X105384500Y-71780000D01*
G75*
G02*
X105134500Y-72030000I-250000J0D01*
G01*
G37*
G36*
G01*
X105134500Y-76430000D02*
X104034500Y-76430000D01*
G75*
G02*
X103784500Y-76180000I0J250000D01*
G01*
X103784500Y-73680000D01*
G75*
G02*
X104034500Y-73430000I250000J0D01*
G01*
X105134500Y-73430000D01*
G75*
G02*
X105384500Y-73680000I0J-250000D01*
G01*
X105384500Y-76180000D01*
G75*
G02*
X105134500Y-76430000I-250000J0D01*
G01*
G37*
G36*
G01*
X103293000Y-148865000D02*
X102193000Y-148865000D01*
G75*
G02*
X101943000Y-148615000I0J250000D01*
G01*
X101943000Y-146115000D01*
G75*
G02*
X102193000Y-145865000I250000J0D01*
G01*
X103293000Y-145865000D01*
G75*
G02*
X103543000Y-146115000I0J-250000D01*
G01*
X103543000Y-148615000D01*
G75*
G02*
X103293000Y-148865000I-250000J0D01*
G01*
G37*
G36*
G01*
X103293000Y-153265000D02*
X102193000Y-153265000D01*
G75*
G02*
X101943000Y-153015000I0J250000D01*
G01*
X101943000Y-150515000D01*
G75*
G02*
X102193000Y-150265000I250000J0D01*
G01*
X103293000Y-150265000D01*
G75*
G02*
X103543000Y-150515000I0J-250000D01*
G01*
X103543000Y-153015000D01*
G75*
G02*
X103293000Y-153265000I-250000J0D01*
G01*
G37*
G36*
G01*
X54770000Y-133689000D02*
X54770000Y-134789000D01*
G75*
G02*
X54520000Y-135039000I-250000J0D01*
G01*
X51520000Y-135039000D01*
G75*
G02*
X51270000Y-134789000I0J250000D01*
G01*
X51270000Y-133689000D01*
G75*
G02*
X51520000Y-133439000I250000J0D01*
G01*
X54520000Y-133439000D01*
G75*
G02*
X54770000Y-133689000I0J-250000D01*
G01*
G37*
G36*
G01*
X60170000Y-133689000D02*
X60170000Y-134789000D01*
G75*
G02*
X59920000Y-135039000I-250000J0D01*
G01*
X56920000Y-135039000D01*
G75*
G02*
X56670000Y-134789000I0J250000D01*
G01*
X56670000Y-133689000D01*
G75*
G02*
X56920000Y-133439000I250000J0D01*
G01*
X59920000Y-133439000D01*
G75*
G02*
X60170000Y-133689000I0J-250000D01*
G01*
G37*
D13*
G36*
X59895000Y-155418500D02*
G01*
X63295000Y-155418500D01*
X64350000Y-156473500D01*
X64350000Y-157413500D01*
X63295000Y-157413500D01*
X62439500Y-156473500D01*
X60750500Y-156473500D01*
X59895000Y-157413500D01*
X58840000Y-157413500D01*
X58840000Y-156473500D01*
X59895000Y-155418500D01*
G37*
G36*
X59895000Y-158933500D02*
G01*
X60750500Y-159873500D01*
X62439500Y-159873500D01*
X63295000Y-158933500D01*
X64350000Y-158933500D01*
X64350000Y-159873500D01*
X63295000Y-160928500D01*
X59895000Y-160928500D01*
X58840000Y-159873500D01*
X58840000Y-158933500D01*
X59895000Y-158933500D01*
G37*
G36*
X80913500Y-151872500D02*
G01*
X84313500Y-151872500D01*
X85368500Y-152927500D01*
X85368500Y-153867500D01*
X84313500Y-153867500D01*
X83458000Y-152927500D01*
X81769000Y-152927500D01*
X80913500Y-153867500D01*
X79858500Y-153867500D01*
X79858500Y-152927500D01*
X80913500Y-151872500D01*
G37*
G36*
X80913500Y-155387500D02*
G01*
X81769000Y-156327500D01*
X83458000Y-156327500D01*
X84313500Y-155387500D01*
X85368500Y-155387500D01*
X85368500Y-156327500D01*
X84313500Y-157382500D01*
X80913500Y-157382500D01*
X79858500Y-156327500D01*
X79858500Y-155387500D01*
X80913500Y-155387500D01*
G37*
G36*
G01*
X104707500Y-125328500D02*
X104207500Y-125328500D01*
G75*
G02*
X103982500Y-125103500I0J225000D01*
G01*
X103982500Y-124653500D01*
G75*
G02*
X104207500Y-124428500I225000J0D01*
G01*
X104707500Y-124428500D01*
G75*
G02*
X104932500Y-124653500I0J-225000D01*
G01*
X104932500Y-125103500D01*
G75*
G02*
X104707500Y-125328500I-225000J0D01*
G01*
G37*
G36*
G01*
X104707500Y-126878500D02*
X104207500Y-126878500D01*
G75*
G02*
X103982500Y-126653500I0J225000D01*
G01*
X103982500Y-126203500D01*
G75*
G02*
X104207500Y-125978500I225000J0D01*
G01*
X104707500Y-125978500D01*
G75*
G02*
X104932500Y-126203500I0J-225000D01*
G01*
X104932500Y-126653500D01*
G75*
G02*
X104707500Y-126878500I-225000J0D01*
G01*
G37*
G36*
G01*
X99437000Y-127805000D02*
X98937000Y-127805000D01*
G75*
G02*
X98712000Y-127580000I0J225000D01*
G01*
X98712000Y-127130000D01*
G75*
G02*
X98937000Y-126905000I225000J0D01*
G01*
X99437000Y-126905000D01*
G75*
G02*
X99662000Y-127130000I0J-225000D01*
G01*
X99662000Y-127580000D01*
G75*
G02*
X99437000Y-127805000I-225000J0D01*
G01*
G37*
G36*
G01*
X99437000Y-129355000D02*
X98937000Y-129355000D01*
G75*
G02*
X98712000Y-129130000I0J225000D01*
G01*
X98712000Y-128680000D01*
G75*
G02*
X98937000Y-128455000I225000J0D01*
G01*
X99437000Y-128455000D01*
G75*
G02*
X99662000Y-128680000I0J-225000D01*
G01*
X99662000Y-129130000D01*
G75*
G02*
X99437000Y-129355000I-225000J0D01*
G01*
G37*
D14*
X66081000Y-106157500D03*
X63881000Y-106157500D03*
X63881000Y-104457500D03*
X66081000Y-104457500D03*
X73469500Y-106094000D03*
X71269500Y-106094000D03*
X71269500Y-104394000D03*
X73469500Y-104394000D03*
G36*
G01*
X34143000Y-145563000D02*
X34143000Y-145013000D01*
G75*
G02*
X34343000Y-144813000I200000J0D01*
G01*
X34743000Y-144813000D01*
G75*
G02*
X34943000Y-145013000I0J-200000D01*
G01*
X34943000Y-145563000D01*
G75*
G02*
X34743000Y-145763000I-200000J0D01*
G01*
X34343000Y-145763000D01*
G75*
G02*
X34143000Y-145563000I0J200000D01*
G01*
G37*
G36*
G01*
X32493000Y-145563000D02*
X32493000Y-145013000D01*
G75*
G02*
X32693000Y-144813000I200000J0D01*
G01*
X33093000Y-144813000D01*
G75*
G02*
X33293000Y-145013000I0J-200000D01*
G01*
X33293000Y-145563000D01*
G75*
G02*
X33093000Y-145763000I-200000J0D01*
G01*
X32693000Y-145763000D01*
G75*
G02*
X32493000Y-145563000I0J200000D01*
G01*
G37*
G36*
G01*
X38661500Y-135586500D02*
X37411500Y-135586500D01*
G75*
G02*
X37161500Y-135336500I0J250000D01*
G01*
X37161500Y-134411500D01*
G75*
G02*
X37411500Y-134161500I250000J0D01*
G01*
X38661500Y-134161500D01*
G75*
G02*
X38911500Y-134411500I0J-250000D01*
G01*
X38911500Y-135336500D01*
G75*
G02*
X38661500Y-135586500I-250000J0D01*
G01*
G37*
G36*
G01*
X38661500Y-138561500D02*
X37411500Y-138561500D01*
G75*
G02*
X37161500Y-138311500I0J250000D01*
G01*
X37161500Y-137386500D01*
G75*
G02*
X37411500Y-137136500I250000J0D01*
G01*
X38661500Y-137136500D01*
G75*
G02*
X38911500Y-137386500I0J-250000D01*
G01*
X38911500Y-138311500D01*
G75*
G02*
X38661500Y-138561500I-250000J0D01*
G01*
G37*
G36*
G01*
X36312000Y-135586500D02*
X35062000Y-135586500D01*
G75*
G02*
X34812000Y-135336500I0J250000D01*
G01*
X34812000Y-134411500D01*
G75*
G02*
X35062000Y-134161500I250000J0D01*
G01*
X36312000Y-134161500D01*
G75*
G02*
X36562000Y-134411500I0J-250000D01*
G01*
X36562000Y-135336500D01*
G75*
G02*
X36312000Y-135586500I-250000J0D01*
G01*
G37*
G36*
G01*
X36312000Y-138561500D02*
X35062000Y-138561500D01*
G75*
G02*
X34812000Y-138311500I0J250000D01*
G01*
X34812000Y-137386500D01*
G75*
G02*
X35062000Y-137136500I250000J0D01*
G01*
X36312000Y-137136500D01*
G75*
G02*
X36562000Y-137386500I0J-250000D01*
G01*
X36562000Y-138311500D01*
G75*
G02*
X36312000Y-138561500I-250000J0D01*
G01*
G37*
G36*
G01*
X33962500Y-135559500D02*
X32712500Y-135559500D01*
G75*
G02*
X32462500Y-135309500I0J250000D01*
G01*
X32462500Y-134384500D01*
G75*
G02*
X32712500Y-134134500I250000J0D01*
G01*
X33962500Y-134134500D01*
G75*
G02*
X34212500Y-134384500I0J-250000D01*
G01*
X34212500Y-135309500D01*
G75*
G02*
X33962500Y-135559500I-250000J0D01*
G01*
G37*
G36*
G01*
X33962500Y-138534500D02*
X32712500Y-138534500D01*
G75*
G02*
X32462500Y-138284500I0J250000D01*
G01*
X32462500Y-137359500D01*
G75*
G02*
X32712500Y-137109500I250000J0D01*
G01*
X33962500Y-137109500D01*
G75*
G02*
X34212500Y-137359500I0J-250000D01*
G01*
X34212500Y-138284500D01*
G75*
G02*
X33962500Y-138534500I-250000J0D01*
G01*
G37*
G36*
G01*
X103443000Y-134401499D02*
X103443000Y-137251501D01*
G75*
G02*
X103193001Y-137501500I-249999J0D01*
G01*
X102292999Y-137501500D01*
G75*
G02*
X102043000Y-137251501I0J249999D01*
G01*
X102043000Y-134401499D01*
G75*
G02*
X102292999Y-134151500I249999J0D01*
G01*
X103193001Y-134151500D01*
G75*
G02*
X103443000Y-134401499I0J-249999D01*
G01*
G37*
G36*
G01*
X109543000Y-134401499D02*
X109543000Y-137251501D01*
G75*
G02*
X109293001Y-137501500I-249999J0D01*
G01*
X108392999Y-137501500D01*
G75*
G02*
X108143000Y-137251501I0J249999D01*
G01*
X108143000Y-134401499D01*
G75*
G02*
X108392999Y-134151500I249999J0D01*
G01*
X109293001Y-134151500D01*
G75*
G02*
X109543000Y-134401499I0J-249999D01*
G01*
G37*
G36*
G01*
X94798000Y-103763000D02*
X94798000Y-104263000D01*
G75*
G02*
X94573000Y-104488000I-225000J0D01*
G01*
X94123000Y-104488000D01*
G75*
G02*
X93898000Y-104263000I0J225000D01*
G01*
X93898000Y-103763000D01*
G75*
G02*
X94123000Y-103538000I225000J0D01*
G01*
X94573000Y-103538000D01*
G75*
G02*
X94798000Y-103763000I0J-225000D01*
G01*
G37*
G36*
G01*
X96348000Y-103763000D02*
X96348000Y-104263000D01*
G75*
G02*
X96123000Y-104488000I-225000J0D01*
G01*
X95673000Y-104488000D01*
G75*
G02*
X95448000Y-104263000I0J225000D01*
G01*
X95448000Y-103763000D01*
G75*
G02*
X95673000Y-103538000I225000J0D01*
G01*
X96123000Y-103538000D01*
G75*
G02*
X96348000Y-103763000I0J-225000D01*
G01*
G37*
G36*
G01*
X101830000Y-104163000D02*
X101830000Y-103863000D01*
G75*
G02*
X101980000Y-103713000I150000J0D01*
G01*
X103630000Y-103713000D01*
G75*
G02*
X103780000Y-103863000I0J-150000D01*
G01*
X103780000Y-104163000D01*
G75*
G02*
X103630000Y-104313000I-150000J0D01*
G01*
X101980000Y-104313000D01*
G75*
G02*
X101830000Y-104163000I0J150000D01*
G01*
G37*
G36*
G01*
X101830000Y-105433000D02*
X101830000Y-105133000D01*
G75*
G02*
X101980000Y-104983000I150000J0D01*
G01*
X103630000Y-104983000D01*
G75*
G02*
X103780000Y-105133000I0J-150000D01*
G01*
X103780000Y-105433000D01*
G75*
G02*
X103630000Y-105583000I-150000J0D01*
G01*
X101980000Y-105583000D01*
G75*
G02*
X101830000Y-105433000I0J150000D01*
G01*
G37*
G36*
G01*
X101830000Y-106703000D02*
X101830000Y-106403000D01*
G75*
G02*
X101980000Y-106253000I150000J0D01*
G01*
X103630000Y-106253000D01*
G75*
G02*
X103780000Y-106403000I0J-150000D01*
G01*
X103780000Y-106703000D01*
G75*
G02*
X103630000Y-106853000I-150000J0D01*
G01*
X101980000Y-106853000D01*
G75*
G02*
X101830000Y-106703000I0J150000D01*
G01*
G37*
G36*
G01*
X101830000Y-107973000D02*
X101830000Y-107673000D01*
G75*
G02*
X101980000Y-107523000I150000J0D01*
G01*
X103630000Y-107523000D01*
G75*
G02*
X103780000Y-107673000I0J-150000D01*
G01*
X103780000Y-107973000D01*
G75*
G02*
X103630000Y-108123000I-150000J0D01*
G01*
X101980000Y-108123000D01*
G75*
G02*
X101830000Y-107973000I0J150000D01*
G01*
G37*
G36*
G01*
X101830000Y-109243000D02*
X101830000Y-108943000D01*
G75*
G02*
X101980000Y-108793000I150000J0D01*
G01*
X103630000Y-108793000D01*
G75*
G02*
X103780000Y-108943000I0J-150000D01*
G01*
X103780000Y-109243000D01*
G75*
G02*
X103630000Y-109393000I-150000J0D01*
G01*
X101980000Y-109393000D01*
G75*
G02*
X101830000Y-109243000I0J150000D01*
G01*
G37*
G36*
G01*
X101830000Y-110513000D02*
X101830000Y-110213000D01*
G75*
G02*
X101980000Y-110063000I150000J0D01*
G01*
X103630000Y-110063000D01*
G75*
G02*
X103780000Y-110213000I0J-150000D01*
G01*
X103780000Y-110513000D01*
G75*
G02*
X103630000Y-110663000I-150000J0D01*
G01*
X101980000Y-110663000D01*
G75*
G02*
X101830000Y-110513000I0J150000D01*
G01*
G37*
G36*
G01*
X101830000Y-111783000D02*
X101830000Y-111483000D01*
G75*
G02*
X101980000Y-111333000I150000J0D01*
G01*
X103630000Y-111333000D01*
G75*
G02*
X103780000Y-111483000I0J-150000D01*
G01*
X103780000Y-111783000D01*
G75*
G02*
X103630000Y-111933000I-150000J0D01*
G01*
X101980000Y-111933000D01*
G75*
G02*
X101830000Y-111783000I0J150000D01*
G01*
G37*
G36*
G01*
X96880000Y-111783000D02*
X96880000Y-111483000D01*
G75*
G02*
X97030000Y-111333000I150000J0D01*
G01*
X98680000Y-111333000D01*
G75*
G02*
X98830000Y-111483000I0J-150000D01*
G01*
X98830000Y-111783000D01*
G75*
G02*
X98680000Y-111933000I-150000J0D01*
G01*
X97030000Y-111933000D01*
G75*
G02*
X96880000Y-111783000I0J150000D01*
G01*
G37*
G36*
G01*
X96880000Y-110513000D02*
X96880000Y-110213000D01*
G75*
G02*
X97030000Y-110063000I150000J0D01*
G01*
X98680000Y-110063000D01*
G75*
G02*
X98830000Y-110213000I0J-150000D01*
G01*
X98830000Y-110513000D01*
G75*
G02*
X98680000Y-110663000I-150000J0D01*
G01*
X97030000Y-110663000D01*
G75*
G02*
X96880000Y-110513000I0J150000D01*
G01*
G37*
G36*
G01*
X96880000Y-109243000D02*
X96880000Y-108943000D01*
G75*
G02*
X97030000Y-108793000I150000J0D01*
G01*
X98680000Y-108793000D01*
G75*
G02*
X98830000Y-108943000I0J-150000D01*
G01*
X98830000Y-109243000D01*
G75*
G02*
X98680000Y-109393000I-150000J0D01*
G01*
X97030000Y-109393000D01*
G75*
G02*
X96880000Y-109243000I0J150000D01*
G01*
G37*
G36*
G01*
X96880000Y-107973000D02*
X96880000Y-107673000D01*
G75*
G02*
X97030000Y-107523000I150000J0D01*
G01*
X98680000Y-107523000D01*
G75*
G02*
X98830000Y-107673000I0J-150000D01*
G01*
X98830000Y-107973000D01*
G75*
G02*
X98680000Y-108123000I-150000J0D01*
G01*
X97030000Y-108123000D01*
G75*
G02*
X96880000Y-107973000I0J150000D01*
G01*
G37*
G36*
G01*
X96880000Y-106703000D02*
X96880000Y-106403000D01*
G75*
G02*
X97030000Y-106253000I150000J0D01*
G01*
X98680000Y-106253000D01*
G75*
G02*
X98830000Y-106403000I0J-150000D01*
G01*
X98830000Y-106703000D01*
G75*
G02*
X98680000Y-106853000I-150000J0D01*
G01*
X97030000Y-106853000D01*
G75*
G02*
X96880000Y-106703000I0J150000D01*
G01*
G37*
G36*
G01*
X96880000Y-105433000D02*
X96880000Y-105133000D01*
G75*
G02*
X97030000Y-104983000I150000J0D01*
G01*
X98680000Y-104983000D01*
G75*
G02*
X98830000Y-105133000I0J-150000D01*
G01*
X98830000Y-105433000D01*
G75*
G02*
X98680000Y-105583000I-150000J0D01*
G01*
X97030000Y-105583000D01*
G75*
G02*
X96880000Y-105433000I0J150000D01*
G01*
G37*
G36*
G01*
X96880000Y-104163000D02*
X96880000Y-103863000D01*
G75*
G02*
X97030000Y-103713000I150000J0D01*
G01*
X98680000Y-103713000D01*
G75*
G02*
X98830000Y-103863000I0J-150000D01*
G01*
X98830000Y-104163000D01*
G75*
G02*
X98680000Y-104313000I-150000J0D01*
G01*
X97030000Y-104313000D01*
G75*
G02*
X96880000Y-104163000I0J150000D01*
G01*
G37*
D15*
X106637500Y-93229000D03*
X106637500Y-93879000D03*
X106637500Y-94529000D03*
X106637500Y-95179000D03*
X106637500Y-95829000D03*
X106637500Y-96479000D03*
X106637500Y-97129000D03*
X106637500Y-97779000D03*
X99737500Y-97779000D03*
X99737500Y-97129000D03*
X99737500Y-96479000D03*
X99737500Y-95829000D03*
X99737500Y-95179000D03*
X99737500Y-94529000D03*
X99737500Y-93879000D03*
X99737500Y-93229000D03*
G36*
G01*
X101384000Y-154963000D02*
X101384000Y-154663000D01*
G75*
G02*
X101534000Y-154513000I150000J0D01*
G01*
X103184000Y-154513000D01*
G75*
G02*
X103334000Y-154663000I0J-150000D01*
G01*
X103334000Y-154963000D01*
G75*
G02*
X103184000Y-155113000I-150000J0D01*
G01*
X101534000Y-155113000D01*
G75*
G02*
X101384000Y-154963000I0J150000D01*
G01*
G37*
G36*
G01*
X101384000Y-156233000D02*
X101384000Y-155933000D01*
G75*
G02*
X101534000Y-155783000I150000J0D01*
G01*
X103184000Y-155783000D01*
G75*
G02*
X103334000Y-155933000I0J-150000D01*
G01*
X103334000Y-156233000D01*
G75*
G02*
X103184000Y-156383000I-150000J0D01*
G01*
X101534000Y-156383000D01*
G75*
G02*
X101384000Y-156233000I0J150000D01*
G01*
G37*
G36*
G01*
X101384000Y-157503000D02*
X101384000Y-157203000D01*
G75*
G02*
X101534000Y-157053000I150000J0D01*
G01*
X103184000Y-157053000D01*
G75*
G02*
X103334000Y-157203000I0J-150000D01*
G01*
X103334000Y-157503000D01*
G75*
G02*
X103184000Y-157653000I-150000J0D01*
G01*
X101534000Y-157653000D01*
G75*
G02*
X101384000Y-157503000I0J150000D01*
G01*
G37*
G36*
G01*
X101384000Y-158773000D02*
X101384000Y-158473000D01*
G75*
G02*
X101534000Y-158323000I150000J0D01*
G01*
X103184000Y-158323000D01*
G75*
G02*
X103334000Y-158473000I0J-150000D01*
G01*
X103334000Y-158773000D01*
G75*
G02*
X103184000Y-158923000I-150000J0D01*
G01*
X101534000Y-158923000D01*
G75*
G02*
X101384000Y-158773000I0J150000D01*
G01*
G37*
G36*
G01*
X96434000Y-158773000D02*
X96434000Y-158473000D01*
G75*
G02*
X96584000Y-158323000I150000J0D01*
G01*
X98234000Y-158323000D01*
G75*
G02*
X98384000Y-158473000I0J-150000D01*
G01*
X98384000Y-158773000D01*
G75*
G02*
X98234000Y-158923000I-150000J0D01*
G01*
X96584000Y-158923000D01*
G75*
G02*
X96434000Y-158773000I0J150000D01*
G01*
G37*
G36*
G01*
X96434000Y-157503000D02*
X96434000Y-157203000D01*
G75*
G02*
X96584000Y-157053000I150000J0D01*
G01*
X98234000Y-157053000D01*
G75*
G02*
X98384000Y-157203000I0J-150000D01*
G01*
X98384000Y-157503000D01*
G75*
G02*
X98234000Y-157653000I-150000J0D01*
G01*
X96584000Y-157653000D01*
G75*
G02*
X96434000Y-157503000I0J150000D01*
G01*
G37*
G36*
G01*
X96434000Y-156233000D02*
X96434000Y-155933000D01*
G75*
G02*
X96584000Y-155783000I150000J0D01*
G01*
X98234000Y-155783000D01*
G75*
G02*
X98384000Y-155933000I0J-150000D01*
G01*
X98384000Y-156233000D01*
G75*
G02*
X98234000Y-156383000I-150000J0D01*
G01*
X96584000Y-156383000D01*
G75*
G02*
X96434000Y-156233000I0J150000D01*
G01*
G37*
G36*
G01*
X96434000Y-154963000D02*
X96434000Y-154663000D01*
G75*
G02*
X96584000Y-154513000I150000J0D01*
G01*
X98234000Y-154513000D01*
G75*
G02*
X98384000Y-154663000I0J-150000D01*
G01*
X98384000Y-154963000D01*
G75*
G02*
X98234000Y-155113000I-150000J0D01*
G01*
X96584000Y-155113000D01*
G75*
G02*
X96434000Y-154963000I0J150000D01*
G01*
G37*
G36*
G01*
X74952000Y-114210000D02*
X76352000Y-114210000D01*
G75*
G02*
X76427000Y-114285000I0J-75000D01*
G01*
X76427000Y-114435000D01*
G75*
G02*
X76352000Y-114510000I-75000J0D01*
G01*
X74952000Y-114510000D01*
G75*
G02*
X74877000Y-114435000I0J75000D01*
G01*
X74877000Y-114285000D01*
G75*
G02*
X74952000Y-114210000I75000J0D01*
G01*
G37*
G36*
G01*
X74952000Y-114710000D02*
X76352000Y-114710000D01*
G75*
G02*
X76427000Y-114785000I0J-75000D01*
G01*
X76427000Y-114935000D01*
G75*
G02*
X76352000Y-115010000I-75000J0D01*
G01*
X74952000Y-115010000D01*
G75*
G02*
X74877000Y-114935000I0J75000D01*
G01*
X74877000Y-114785000D01*
G75*
G02*
X74952000Y-114710000I75000J0D01*
G01*
G37*
G36*
G01*
X74952000Y-115210000D02*
X76352000Y-115210000D01*
G75*
G02*
X76427000Y-115285000I0J-75000D01*
G01*
X76427000Y-115435000D01*
G75*
G02*
X76352000Y-115510000I-75000J0D01*
G01*
X74952000Y-115510000D01*
G75*
G02*
X74877000Y-115435000I0J75000D01*
G01*
X74877000Y-115285000D01*
G75*
G02*
X74952000Y-115210000I75000J0D01*
G01*
G37*
G36*
G01*
X74952000Y-115710000D02*
X76352000Y-115710000D01*
G75*
G02*
X76427000Y-115785000I0J-75000D01*
G01*
X76427000Y-115935000D01*
G75*
G02*
X76352000Y-116010000I-75000J0D01*
G01*
X74952000Y-116010000D01*
G75*
G02*
X74877000Y-115935000I0J75000D01*
G01*
X74877000Y-115785000D01*
G75*
G02*
X74952000Y-115710000I75000J0D01*
G01*
G37*
G36*
G01*
X74952000Y-116210000D02*
X76352000Y-116210000D01*
G75*
G02*
X76427000Y-116285000I0J-75000D01*
G01*
X76427000Y-116435000D01*
G75*
G02*
X76352000Y-116510000I-75000J0D01*
G01*
X74952000Y-116510000D01*
G75*
G02*
X74877000Y-116435000I0J75000D01*
G01*
X74877000Y-116285000D01*
G75*
G02*
X74952000Y-116210000I75000J0D01*
G01*
G37*
G36*
G01*
X74952000Y-116710000D02*
X76352000Y-116710000D01*
G75*
G02*
X76427000Y-116785000I0J-75000D01*
G01*
X76427000Y-116935000D01*
G75*
G02*
X76352000Y-117010000I-75000J0D01*
G01*
X74952000Y-117010000D01*
G75*
G02*
X74877000Y-116935000I0J75000D01*
G01*
X74877000Y-116785000D01*
G75*
G02*
X74952000Y-116710000I75000J0D01*
G01*
G37*
G36*
G01*
X74952000Y-117210000D02*
X76352000Y-117210000D01*
G75*
G02*
X76427000Y-117285000I0J-75000D01*
G01*
X76427000Y-117435000D01*
G75*
G02*
X76352000Y-117510000I-75000J0D01*
G01*
X74952000Y-117510000D01*
G75*
G02*
X74877000Y-117435000I0J75000D01*
G01*
X74877000Y-117285000D01*
G75*
G02*
X74952000Y-117210000I75000J0D01*
G01*
G37*
G36*
G01*
X74952000Y-117710000D02*
X76352000Y-117710000D01*
G75*
G02*
X76427000Y-117785000I0J-75000D01*
G01*
X76427000Y-117935000D01*
G75*
G02*
X76352000Y-118010000I-75000J0D01*
G01*
X74952000Y-118010000D01*
G75*
G02*
X74877000Y-117935000I0J75000D01*
G01*
X74877000Y-117785000D01*
G75*
G02*
X74952000Y-117710000I75000J0D01*
G01*
G37*
G36*
G01*
X74952000Y-118210000D02*
X76352000Y-118210000D01*
G75*
G02*
X76427000Y-118285000I0J-75000D01*
G01*
X76427000Y-118435000D01*
G75*
G02*
X76352000Y-118510000I-75000J0D01*
G01*
X74952000Y-118510000D01*
G75*
G02*
X74877000Y-118435000I0J75000D01*
G01*
X74877000Y-118285000D01*
G75*
G02*
X74952000Y-118210000I75000J0D01*
G01*
G37*
G36*
G01*
X74952000Y-118710000D02*
X76352000Y-118710000D01*
G75*
G02*
X76427000Y-118785000I0J-75000D01*
G01*
X76427000Y-118935000D01*
G75*
G02*
X76352000Y-119010000I-75000J0D01*
G01*
X74952000Y-119010000D01*
G75*
G02*
X74877000Y-118935000I0J75000D01*
G01*
X74877000Y-118785000D01*
G75*
G02*
X74952000Y-118710000I75000J0D01*
G01*
G37*
G36*
G01*
X74952000Y-119210000D02*
X76352000Y-119210000D01*
G75*
G02*
X76427000Y-119285000I0J-75000D01*
G01*
X76427000Y-119435000D01*
G75*
G02*
X76352000Y-119510000I-75000J0D01*
G01*
X74952000Y-119510000D01*
G75*
G02*
X74877000Y-119435000I0J75000D01*
G01*
X74877000Y-119285000D01*
G75*
G02*
X74952000Y-119210000I75000J0D01*
G01*
G37*
G36*
G01*
X74952000Y-119710000D02*
X76352000Y-119710000D01*
G75*
G02*
X76427000Y-119785000I0J-75000D01*
G01*
X76427000Y-119935000D01*
G75*
G02*
X76352000Y-120010000I-75000J0D01*
G01*
X74952000Y-120010000D01*
G75*
G02*
X74877000Y-119935000I0J75000D01*
G01*
X74877000Y-119785000D01*
G75*
G02*
X74952000Y-119710000I75000J0D01*
G01*
G37*
G36*
G01*
X74952000Y-120210000D02*
X76352000Y-120210000D01*
G75*
G02*
X76427000Y-120285000I0J-75000D01*
G01*
X76427000Y-120435000D01*
G75*
G02*
X76352000Y-120510000I-75000J0D01*
G01*
X74952000Y-120510000D01*
G75*
G02*
X74877000Y-120435000I0J75000D01*
G01*
X74877000Y-120285000D01*
G75*
G02*
X74952000Y-120210000I75000J0D01*
G01*
G37*
G36*
G01*
X74952000Y-120710000D02*
X76352000Y-120710000D01*
G75*
G02*
X76427000Y-120785000I0J-75000D01*
G01*
X76427000Y-120935000D01*
G75*
G02*
X76352000Y-121010000I-75000J0D01*
G01*
X74952000Y-121010000D01*
G75*
G02*
X74877000Y-120935000I0J75000D01*
G01*
X74877000Y-120785000D01*
G75*
G02*
X74952000Y-120710000I75000J0D01*
G01*
G37*
G36*
G01*
X74952000Y-121210000D02*
X76352000Y-121210000D01*
G75*
G02*
X76427000Y-121285000I0J-75000D01*
G01*
X76427000Y-121435000D01*
G75*
G02*
X76352000Y-121510000I-75000J0D01*
G01*
X74952000Y-121510000D01*
G75*
G02*
X74877000Y-121435000I0J75000D01*
G01*
X74877000Y-121285000D01*
G75*
G02*
X74952000Y-121210000I75000J0D01*
G01*
G37*
G36*
G01*
X74952000Y-121710000D02*
X76352000Y-121710000D01*
G75*
G02*
X76427000Y-121785000I0J-75000D01*
G01*
X76427000Y-121935000D01*
G75*
G02*
X76352000Y-122010000I-75000J0D01*
G01*
X74952000Y-122010000D01*
G75*
G02*
X74877000Y-121935000I0J75000D01*
G01*
X74877000Y-121785000D01*
G75*
G02*
X74952000Y-121710000I75000J0D01*
G01*
G37*
G36*
G01*
X73652000Y-123010000D02*
X73802000Y-123010000D01*
G75*
G02*
X73877000Y-123085000I0J-75000D01*
G01*
X73877000Y-124485000D01*
G75*
G02*
X73802000Y-124560000I-75000J0D01*
G01*
X73652000Y-124560000D01*
G75*
G02*
X73577000Y-124485000I0J75000D01*
G01*
X73577000Y-123085000D01*
G75*
G02*
X73652000Y-123010000I75000J0D01*
G01*
G37*
G36*
G01*
X73152000Y-123010000D02*
X73302000Y-123010000D01*
G75*
G02*
X73377000Y-123085000I0J-75000D01*
G01*
X73377000Y-124485000D01*
G75*
G02*
X73302000Y-124560000I-75000J0D01*
G01*
X73152000Y-124560000D01*
G75*
G02*
X73077000Y-124485000I0J75000D01*
G01*
X73077000Y-123085000D01*
G75*
G02*
X73152000Y-123010000I75000J0D01*
G01*
G37*
G36*
G01*
X72652000Y-123010000D02*
X72802000Y-123010000D01*
G75*
G02*
X72877000Y-123085000I0J-75000D01*
G01*
X72877000Y-124485000D01*
G75*
G02*
X72802000Y-124560000I-75000J0D01*
G01*
X72652000Y-124560000D01*
G75*
G02*
X72577000Y-124485000I0J75000D01*
G01*
X72577000Y-123085000D01*
G75*
G02*
X72652000Y-123010000I75000J0D01*
G01*
G37*
G36*
G01*
X72152000Y-123010000D02*
X72302000Y-123010000D01*
G75*
G02*
X72377000Y-123085000I0J-75000D01*
G01*
X72377000Y-124485000D01*
G75*
G02*
X72302000Y-124560000I-75000J0D01*
G01*
X72152000Y-124560000D01*
G75*
G02*
X72077000Y-124485000I0J75000D01*
G01*
X72077000Y-123085000D01*
G75*
G02*
X72152000Y-123010000I75000J0D01*
G01*
G37*
G36*
G01*
X71652000Y-123010000D02*
X71802000Y-123010000D01*
G75*
G02*
X71877000Y-123085000I0J-75000D01*
G01*
X71877000Y-124485000D01*
G75*
G02*
X71802000Y-124560000I-75000J0D01*
G01*
X71652000Y-124560000D01*
G75*
G02*
X71577000Y-124485000I0J75000D01*
G01*
X71577000Y-123085000D01*
G75*
G02*
X71652000Y-123010000I75000J0D01*
G01*
G37*
G36*
G01*
X71152000Y-123010000D02*
X71302000Y-123010000D01*
G75*
G02*
X71377000Y-123085000I0J-75000D01*
G01*
X71377000Y-124485000D01*
G75*
G02*
X71302000Y-124560000I-75000J0D01*
G01*
X71152000Y-124560000D01*
G75*
G02*
X71077000Y-124485000I0J75000D01*
G01*
X71077000Y-123085000D01*
G75*
G02*
X71152000Y-123010000I75000J0D01*
G01*
G37*
G36*
G01*
X70652000Y-123010000D02*
X70802000Y-123010000D01*
G75*
G02*
X70877000Y-123085000I0J-75000D01*
G01*
X70877000Y-124485000D01*
G75*
G02*
X70802000Y-124560000I-75000J0D01*
G01*
X70652000Y-124560000D01*
G75*
G02*
X70577000Y-124485000I0J75000D01*
G01*
X70577000Y-123085000D01*
G75*
G02*
X70652000Y-123010000I75000J0D01*
G01*
G37*
G36*
G01*
X70152000Y-123010000D02*
X70302000Y-123010000D01*
G75*
G02*
X70377000Y-123085000I0J-75000D01*
G01*
X70377000Y-124485000D01*
G75*
G02*
X70302000Y-124560000I-75000J0D01*
G01*
X70152000Y-124560000D01*
G75*
G02*
X70077000Y-124485000I0J75000D01*
G01*
X70077000Y-123085000D01*
G75*
G02*
X70152000Y-123010000I75000J0D01*
G01*
G37*
G36*
G01*
X69652000Y-123010000D02*
X69802000Y-123010000D01*
G75*
G02*
X69877000Y-123085000I0J-75000D01*
G01*
X69877000Y-124485000D01*
G75*
G02*
X69802000Y-124560000I-75000J0D01*
G01*
X69652000Y-124560000D01*
G75*
G02*
X69577000Y-124485000I0J75000D01*
G01*
X69577000Y-123085000D01*
G75*
G02*
X69652000Y-123010000I75000J0D01*
G01*
G37*
G36*
G01*
X69152000Y-123010000D02*
X69302000Y-123010000D01*
G75*
G02*
X69377000Y-123085000I0J-75000D01*
G01*
X69377000Y-124485000D01*
G75*
G02*
X69302000Y-124560000I-75000J0D01*
G01*
X69152000Y-124560000D01*
G75*
G02*
X69077000Y-124485000I0J75000D01*
G01*
X69077000Y-123085000D01*
G75*
G02*
X69152000Y-123010000I75000J0D01*
G01*
G37*
G36*
G01*
X68652000Y-123010000D02*
X68802000Y-123010000D01*
G75*
G02*
X68877000Y-123085000I0J-75000D01*
G01*
X68877000Y-124485000D01*
G75*
G02*
X68802000Y-124560000I-75000J0D01*
G01*
X68652000Y-124560000D01*
G75*
G02*
X68577000Y-124485000I0J75000D01*
G01*
X68577000Y-123085000D01*
G75*
G02*
X68652000Y-123010000I75000J0D01*
G01*
G37*
G36*
G01*
X68152000Y-123010000D02*
X68302000Y-123010000D01*
G75*
G02*
X68377000Y-123085000I0J-75000D01*
G01*
X68377000Y-124485000D01*
G75*
G02*
X68302000Y-124560000I-75000J0D01*
G01*
X68152000Y-124560000D01*
G75*
G02*
X68077000Y-124485000I0J75000D01*
G01*
X68077000Y-123085000D01*
G75*
G02*
X68152000Y-123010000I75000J0D01*
G01*
G37*
G36*
G01*
X67652000Y-123010000D02*
X67802000Y-123010000D01*
G75*
G02*
X67877000Y-123085000I0J-75000D01*
G01*
X67877000Y-124485000D01*
G75*
G02*
X67802000Y-124560000I-75000J0D01*
G01*
X67652000Y-124560000D01*
G75*
G02*
X67577000Y-124485000I0J75000D01*
G01*
X67577000Y-123085000D01*
G75*
G02*
X67652000Y-123010000I75000J0D01*
G01*
G37*
G36*
G01*
X67152000Y-123010000D02*
X67302000Y-123010000D01*
G75*
G02*
X67377000Y-123085000I0J-75000D01*
G01*
X67377000Y-124485000D01*
G75*
G02*
X67302000Y-124560000I-75000J0D01*
G01*
X67152000Y-124560000D01*
G75*
G02*
X67077000Y-124485000I0J75000D01*
G01*
X67077000Y-123085000D01*
G75*
G02*
X67152000Y-123010000I75000J0D01*
G01*
G37*
G36*
G01*
X66652000Y-123010000D02*
X66802000Y-123010000D01*
G75*
G02*
X66877000Y-123085000I0J-75000D01*
G01*
X66877000Y-124485000D01*
G75*
G02*
X66802000Y-124560000I-75000J0D01*
G01*
X66652000Y-124560000D01*
G75*
G02*
X66577000Y-124485000I0J75000D01*
G01*
X66577000Y-123085000D01*
G75*
G02*
X66652000Y-123010000I75000J0D01*
G01*
G37*
G36*
G01*
X66152000Y-123010000D02*
X66302000Y-123010000D01*
G75*
G02*
X66377000Y-123085000I0J-75000D01*
G01*
X66377000Y-124485000D01*
G75*
G02*
X66302000Y-124560000I-75000J0D01*
G01*
X66152000Y-124560000D01*
G75*
G02*
X66077000Y-124485000I0J75000D01*
G01*
X66077000Y-123085000D01*
G75*
G02*
X66152000Y-123010000I75000J0D01*
G01*
G37*
G36*
G01*
X63602000Y-121710000D02*
X65002000Y-121710000D01*
G75*
G02*
X65077000Y-121785000I0J-75000D01*
G01*
X65077000Y-121935000D01*
G75*
G02*
X65002000Y-122010000I-75000J0D01*
G01*
X63602000Y-122010000D01*
G75*
G02*
X63527000Y-121935000I0J75000D01*
G01*
X63527000Y-121785000D01*
G75*
G02*
X63602000Y-121710000I75000J0D01*
G01*
G37*
G36*
G01*
X63602000Y-121210000D02*
X65002000Y-121210000D01*
G75*
G02*
X65077000Y-121285000I0J-75000D01*
G01*
X65077000Y-121435000D01*
G75*
G02*
X65002000Y-121510000I-75000J0D01*
G01*
X63602000Y-121510000D01*
G75*
G02*
X63527000Y-121435000I0J75000D01*
G01*
X63527000Y-121285000D01*
G75*
G02*
X63602000Y-121210000I75000J0D01*
G01*
G37*
G36*
G01*
X63602000Y-120710000D02*
X65002000Y-120710000D01*
G75*
G02*
X65077000Y-120785000I0J-75000D01*
G01*
X65077000Y-120935000D01*
G75*
G02*
X65002000Y-121010000I-75000J0D01*
G01*
X63602000Y-121010000D01*
G75*
G02*
X63527000Y-120935000I0J75000D01*
G01*
X63527000Y-120785000D01*
G75*
G02*
X63602000Y-120710000I75000J0D01*
G01*
G37*
G36*
G01*
X63602000Y-120210000D02*
X65002000Y-120210000D01*
G75*
G02*
X65077000Y-120285000I0J-75000D01*
G01*
X65077000Y-120435000D01*
G75*
G02*
X65002000Y-120510000I-75000J0D01*
G01*
X63602000Y-120510000D01*
G75*
G02*
X63527000Y-120435000I0J75000D01*
G01*
X63527000Y-120285000D01*
G75*
G02*
X63602000Y-120210000I75000J0D01*
G01*
G37*
G36*
G01*
X63602000Y-119710000D02*
X65002000Y-119710000D01*
G75*
G02*
X65077000Y-119785000I0J-75000D01*
G01*
X65077000Y-119935000D01*
G75*
G02*
X65002000Y-120010000I-75000J0D01*
G01*
X63602000Y-120010000D01*
G75*
G02*
X63527000Y-119935000I0J75000D01*
G01*
X63527000Y-119785000D01*
G75*
G02*
X63602000Y-119710000I75000J0D01*
G01*
G37*
G36*
G01*
X63602000Y-119210000D02*
X65002000Y-119210000D01*
G75*
G02*
X65077000Y-119285000I0J-75000D01*
G01*
X65077000Y-119435000D01*
G75*
G02*
X65002000Y-119510000I-75000J0D01*
G01*
X63602000Y-119510000D01*
G75*
G02*
X63527000Y-119435000I0J75000D01*
G01*
X63527000Y-119285000D01*
G75*
G02*
X63602000Y-119210000I75000J0D01*
G01*
G37*
G36*
G01*
X63602000Y-118710000D02*
X65002000Y-118710000D01*
G75*
G02*
X65077000Y-118785000I0J-75000D01*
G01*
X65077000Y-118935000D01*
G75*
G02*
X65002000Y-119010000I-75000J0D01*
G01*
X63602000Y-119010000D01*
G75*
G02*
X63527000Y-118935000I0J75000D01*
G01*
X63527000Y-118785000D01*
G75*
G02*
X63602000Y-118710000I75000J0D01*
G01*
G37*
G36*
G01*
X63602000Y-118210000D02*
X65002000Y-118210000D01*
G75*
G02*
X65077000Y-118285000I0J-75000D01*
G01*
X65077000Y-118435000D01*
G75*
G02*
X65002000Y-118510000I-75000J0D01*
G01*
X63602000Y-118510000D01*
G75*
G02*
X63527000Y-118435000I0J75000D01*
G01*
X63527000Y-118285000D01*
G75*
G02*
X63602000Y-118210000I75000J0D01*
G01*
G37*
G36*
G01*
X63602000Y-117710000D02*
X65002000Y-117710000D01*
G75*
G02*
X65077000Y-117785000I0J-75000D01*
G01*
X65077000Y-117935000D01*
G75*
G02*
X65002000Y-118010000I-75000J0D01*
G01*
X63602000Y-118010000D01*
G75*
G02*
X63527000Y-117935000I0J75000D01*
G01*
X63527000Y-117785000D01*
G75*
G02*
X63602000Y-117710000I75000J0D01*
G01*
G37*
G36*
G01*
X63602000Y-117210000D02*
X65002000Y-117210000D01*
G75*
G02*
X65077000Y-117285000I0J-75000D01*
G01*
X65077000Y-117435000D01*
G75*
G02*
X65002000Y-117510000I-75000J0D01*
G01*
X63602000Y-117510000D01*
G75*
G02*
X63527000Y-117435000I0J75000D01*
G01*
X63527000Y-117285000D01*
G75*
G02*
X63602000Y-117210000I75000J0D01*
G01*
G37*
G36*
G01*
X63602000Y-116710000D02*
X65002000Y-116710000D01*
G75*
G02*
X65077000Y-116785000I0J-75000D01*
G01*
X65077000Y-116935000D01*
G75*
G02*
X65002000Y-117010000I-75000J0D01*
G01*
X63602000Y-117010000D01*
G75*
G02*
X63527000Y-116935000I0J75000D01*
G01*
X63527000Y-116785000D01*
G75*
G02*
X63602000Y-116710000I75000J0D01*
G01*
G37*
G36*
G01*
X63602000Y-116210000D02*
X65002000Y-116210000D01*
G75*
G02*
X65077000Y-116285000I0J-75000D01*
G01*
X65077000Y-116435000D01*
G75*
G02*
X65002000Y-116510000I-75000J0D01*
G01*
X63602000Y-116510000D01*
G75*
G02*
X63527000Y-116435000I0J75000D01*
G01*
X63527000Y-116285000D01*
G75*
G02*
X63602000Y-116210000I75000J0D01*
G01*
G37*
G36*
G01*
X63602000Y-115710000D02*
X65002000Y-115710000D01*
G75*
G02*
X65077000Y-115785000I0J-75000D01*
G01*
X65077000Y-115935000D01*
G75*
G02*
X65002000Y-116010000I-75000J0D01*
G01*
X63602000Y-116010000D01*
G75*
G02*
X63527000Y-115935000I0J75000D01*
G01*
X63527000Y-115785000D01*
G75*
G02*
X63602000Y-115710000I75000J0D01*
G01*
G37*
G36*
G01*
X63602000Y-115210000D02*
X65002000Y-115210000D01*
G75*
G02*
X65077000Y-115285000I0J-75000D01*
G01*
X65077000Y-115435000D01*
G75*
G02*
X65002000Y-115510000I-75000J0D01*
G01*
X63602000Y-115510000D01*
G75*
G02*
X63527000Y-115435000I0J75000D01*
G01*
X63527000Y-115285000D01*
G75*
G02*
X63602000Y-115210000I75000J0D01*
G01*
G37*
G36*
G01*
X63602000Y-114710000D02*
X65002000Y-114710000D01*
G75*
G02*
X65077000Y-114785000I0J-75000D01*
G01*
X65077000Y-114935000D01*
G75*
G02*
X65002000Y-115010000I-75000J0D01*
G01*
X63602000Y-115010000D01*
G75*
G02*
X63527000Y-114935000I0J75000D01*
G01*
X63527000Y-114785000D01*
G75*
G02*
X63602000Y-114710000I75000J0D01*
G01*
G37*
G36*
G01*
X63602000Y-114210000D02*
X65002000Y-114210000D01*
G75*
G02*
X65077000Y-114285000I0J-75000D01*
G01*
X65077000Y-114435000D01*
G75*
G02*
X65002000Y-114510000I-75000J0D01*
G01*
X63602000Y-114510000D01*
G75*
G02*
X63527000Y-114435000I0J75000D01*
G01*
X63527000Y-114285000D01*
G75*
G02*
X63602000Y-114210000I75000J0D01*
G01*
G37*
G36*
G01*
X66152000Y-111660000D02*
X66302000Y-111660000D01*
G75*
G02*
X66377000Y-111735000I0J-75000D01*
G01*
X66377000Y-113135000D01*
G75*
G02*
X66302000Y-113210000I-75000J0D01*
G01*
X66152000Y-113210000D01*
G75*
G02*
X66077000Y-113135000I0J75000D01*
G01*
X66077000Y-111735000D01*
G75*
G02*
X66152000Y-111660000I75000J0D01*
G01*
G37*
G36*
G01*
X66652000Y-111660000D02*
X66802000Y-111660000D01*
G75*
G02*
X66877000Y-111735000I0J-75000D01*
G01*
X66877000Y-113135000D01*
G75*
G02*
X66802000Y-113210000I-75000J0D01*
G01*
X66652000Y-113210000D01*
G75*
G02*
X66577000Y-113135000I0J75000D01*
G01*
X66577000Y-111735000D01*
G75*
G02*
X66652000Y-111660000I75000J0D01*
G01*
G37*
G36*
G01*
X67152000Y-111660000D02*
X67302000Y-111660000D01*
G75*
G02*
X67377000Y-111735000I0J-75000D01*
G01*
X67377000Y-113135000D01*
G75*
G02*
X67302000Y-113210000I-75000J0D01*
G01*
X67152000Y-113210000D01*
G75*
G02*
X67077000Y-113135000I0J75000D01*
G01*
X67077000Y-111735000D01*
G75*
G02*
X67152000Y-111660000I75000J0D01*
G01*
G37*
G36*
G01*
X67652000Y-111660000D02*
X67802000Y-111660000D01*
G75*
G02*
X67877000Y-111735000I0J-75000D01*
G01*
X67877000Y-113135000D01*
G75*
G02*
X67802000Y-113210000I-75000J0D01*
G01*
X67652000Y-113210000D01*
G75*
G02*
X67577000Y-113135000I0J75000D01*
G01*
X67577000Y-111735000D01*
G75*
G02*
X67652000Y-111660000I75000J0D01*
G01*
G37*
G36*
G01*
X68152000Y-111660000D02*
X68302000Y-111660000D01*
G75*
G02*
X68377000Y-111735000I0J-75000D01*
G01*
X68377000Y-113135000D01*
G75*
G02*
X68302000Y-113210000I-75000J0D01*
G01*
X68152000Y-113210000D01*
G75*
G02*
X68077000Y-113135000I0J75000D01*
G01*
X68077000Y-111735000D01*
G75*
G02*
X68152000Y-111660000I75000J0D01*
G01*
G37*
G36*
G01*
X68652000Y-111660000D02*
X68802000Y-111660000D01*
G75*
G02*
X68877000Y-111735000I0J-75000D01*
G01*
X68877000Y-113135000D01*
G75*
G02*
X68802000Y-113210000I-75000J0D01*
G01*
X68652000Y-113210000D01*
G75*
G02*
X68577000Y-113135000I0J75000D01*
G01*
X68577000Y-111735000D01*
G75*
G02*
X68652000Y-111660000I75000J0D01*
G01*
G37*
G36*
G01*
X69152000Y-111660000D02*
X69302000Y-111660000D01*
G75*
G02*
X69377000Y-111735000I0J-75000D01*
G01*
X69377000Y-113135000D01*
G75*
G02*
X69302000Y-113210000I-75000J0D01*
G01*
X69152000Y-113210000D01*
G75*
G02*
X69077000Y-113135000I0J75000D01*
G01*
X69077000Y-111735000D01*
G75*
G02*
X69152000Y-111660000I75000J0D01*
G01*
G37*
G36*
G01*
X69652000Y-111660000D02*
X69802000Y-111660000D01*
G75*
G02*
X69877000Y-111735000I0J-75000D01*
G01*
X69877000Y-113135000D01*
G75*
G02*
X69802000Y-113210000I-75000J0D01*
G01*
X69652000Y-113210000D01*
G75*
G02*
X69577000Y-113135000I0J75000D01*
G01*
X69577000Y-111735000D01*
G75*
G02*
X69652000Y-111660000I75000J0D01*
G01*
G37*
G36*
G01*
X70152000Y-111660000D02*
X70302000Y-111660000D01*
G75*
G02*
X70377000Y-111735000I0J-75000D01*
G01*
X70377000Y-113135000D01*
G75*
G02*
X70302000Y-113210000I-75000J0D01*
G01*
X70152000Y-113210000D01*
G75*
G02*
X70077000Y-113135000I0J75000D01*
G01*
X70077000Y-111735000D01*
G75*
G02*
X70152000Y-111660000I75000J0D01*
G01*
G37*
G36*
G01*
X70652000Y-111660000D02*
X70802000Y-111660000D01*
G75*
G02*
X70877000Y-111735000I0J-75000D01*
G01*
X70877000Y-113135000D01*
G75*
G02*
X70802000Y-113210000I-75000J0D01*
G01*
X70652000Y-113210000D01*
G75*
G02*
X70577000Y-113135000I0J75000D01*
G01*
X70577000Y-111735000D01*
G75*
G02*
X70652000Y-111660000I75000J0D01*
G01*
G37*
G36*
G01*
X71152000Y-111660000D02*
X71302000Y-111660000D01*
G75*
G02*
X71377000Y-111735000I0J-75000D01*
G01*
X71377000Y-113135000D01*
G75*
G02*
X71302000Y-113210000I-75000J0D01*
G01*
X71152000Y-113210000D01*
G75*
G02*
X71077000Y-113135000I0J75000D01*
G01*
X71077000Y-111735000D01*
G75*
G02*
X71152000Y-111660000I75000J0D01*
G01*
G37*
G36*
G01*
X71652000Y-111660000D02*
X71802000Y-111660000D01*
G75*
G02*
X71877000Y-111735000I0J-75000D01*
G01*
X71877000Y-113135000D01*
G75*
G02*
X71802000Y-113210000I-75000J0D01*
G01*
X71652000Y-113210000D01*
G75*
G02*
X71577000Y-113135000I0J75000D01*
G01*
X71577000Y-111735000D01*
G75*
G02*
X71652000Y-111660000I75000J0D01*
G01*
G37*
G36*
G01*
X72152000Y-111660000D02*
X72302000Y-111660000D01*
G75*
G02*
X72377000Y-111735000I0J-75000D01*
G01*
X72377000Y-113135000D01*
G75*
G02*
X72302000Y-113210000I-75000J0D01*
G01*
X72152000Y-113210000D01*
G75*
G02*
X72077000Y-113135000I0J75000D01*
G01*
X72077000Y-111735000D01*
G75*
G02*
X72152000Y-111660000I75000J0D01*
G01*
G37*
G36*
G01*
X72652000Y-111660000D02*
X72802000Y-111660000D01*
G75*
G02*
X72877000Y-111735000I0J-75000D01*
G01*
X72877000Y-113135000D01*
G75*
G02*
X72802000Y-113210000I-75000J0D01*
G01*
X72652000Y-113210000D01*
G75*
G02*
X72577000Y-113135000I0J75000D01*
G01*
X72577000Y-111735000D01*
G75*
G02*
X72652000Y-111660000I75000J0D01*
G01*
G37*
G36*
G01*
X73152000Y-111660000D02*
X73302000Y-111660000D01*
G75*
G02*
X73377000Y-111735000I0J-75000D01*
G01*
X73377000Y-113135000D01*
G75*
G02*
X73302000Y-113210000I-75000J0D01*
G01*
X73152000Y-113210000D01*
G75*
G02*
X73077000Y-113135000I0J75000D01*
G01*
X73077000Y-111735000D01*
G75*
G02*
X73152000Y-111660000I75000J0D01*
G01*
G37*
G36*
G01*
X73652000Y-111660000D02*
X73802000Y-111660000D01*
G75*
G02*
X73877000Y-111735000I0J-75000D01*
G01*
X73877000Y-113135000D01*
G75*
G02*
X73802000Y-113210000I-75000J0D01*
G01*
X73652000Y-113210000D01*
G75*
G02*
X73577000Y-113135000I0J75000D01*
G01*
X73577000Y-111735000D01*
G75*
G02*
X73652000Y-111660000I75000J0D01*
G01*
G37*
G36*
G01*
X103572500Y-79319500D02*
X103572500Y-79019500D01*
G75*
G02*
X103722500Y-78869500I150000J0D01*
G01*
X105372500Y-78869500D01*
G75*
G02*
X105522500Y-79019500I0J-150000D01*
G01*
X105522500Y-79319500D01*
G75*
G02*
X105372500Y-79469500I-150000J0D01*
G01*
X103722500Y-79469500D01*
G75*
G02*
X103572500Y-79319500I0J150000D01*
G01*
G37*
G36*
G01*
X103572500Y-80589500D02*
X103572500Y-80289500D01*
G75*
G02*
X103722500Y-80139500I150000J0D01*
G01*
X105372500Y-80139500D01*
G75*
G02*
X105522500Y-80289500I0J-150000D01*
G01*
X105522500Y-80589500D01*
G75*
G02*
X105372500Y-80739500I-150000J0D01*
G01*
X103722500Y-80739500D01*
G75*
G02*
X103572500Y-80589500I0J150000D01*
G01*
G37*
G36*
G01*
X103572500Y-81859500D02*
X103572500Y-81559500D01*
G75*
G02*
X103722500Y-81409500I150000J0D01*
G01*
X105372500Y-81409500D01*
G75*
G02*
X105522500Y-81559500I0J-150000D01*
G01*
X105522500Y-81859500D01*
G75*
G02*
X105372500Y-82009500I-150000J0D01*
G01*
X103722500Y-82009500D01*
G75*
G02*
X103572500Y-81859500I0J150000D01*
G01*
G37*
G36*
G01*
X103572500Y-83129500D02*
X103572500Y-82829500D01*
G75*
G02*
X103722500Y-82679500I150000J0D01*
G01*
X105372500Y-82679500D01*
G75*
G02*
X105522500Y-82829500I0J-150000D01*
G01*
X105522500Y-83129500D01*
G75*
G02*
X105372500Y-83279500I-150000J0D01*
G01*
X103722500Y-83279500D01*
G75*
G02*
X103572500Y-83129500I0J150000D01*
G01*
G37*
G36*
G01*
X98622500Y-83129500D02*
X98622500Y-82829500D01*
G75*
G02*
X98772500Y-82679500I150000J0D01*
G01*
X100422500Y-82679500D01*
G75*
G02*
X100572500Y-82829500I0J-150000D01*
G01*
X100572500Y-83129500D01*
G75*
G02*
X100422500Y-83279500I-150000J0D01*
G01*
X98772500Y-83279500D01*
G75*
G02*
X98622500Y-83129500I0J150000D01*
G01*
G37*
G36*
G01*
X98622500Y-81859500D02*
X98622500Y-81559500D01*
G75*
G02*
X98772500Y-81409500I150000J0D01*
G01*
X100422500Y-81409500D01*
G75*
G02*
X100572500Y-81559500I0J-150000D01*
G01*
X100572500Y-81859500D01*
G75*
G02*
X100422500Y-82009500I-150000J0D01*
G01*
X98772500Y-82009500D01*
G75*
G02*
X98622500Y-81859500I0J150000D01*
G01*
G37*
G36*
G01*
X98622500Y-80589500D02*
X98622500Y-80289500D01*
G75*
G02*
X98772500Y-80139500I150000J0D01*
G01*
X100422500Y-80139500D01*
G75*
G02*
X100572500Y-80289500I0J-150000D01*
G01*
X100572500Y-80589500D01*
G75*
G02*
X100422500Y-80739500I-150000J0D01*
G01*
X98772500Y-80739500D01*
G75*
G02*
X98622500Y-80589500I0J150000D01*
G01*
G37*
G36*
G01*
X98622500Y-79319500D02*
X98622500Y-79019500D01*
G75*
G02*
X98772500Y-78869500I150000J0D01*
G01*
X100422500Y-78869500D01*
G75*
G02*
X100572500Y-79019500I0J-150000D01*
G01*
X100572500Y-79319500D01*
G75*
G02*
X100422500Y-79469500I-150000J0D01*
G01*
X98772500Y-79469500D01*
G75*
G02*
X98622500Y-79319500I0J150000D01*
G01*
G37*
D16*
X60819000Y-143065500D03*
X65419000Y-143065500D03*
X63119000Y-143065500D03*
D17*
X63119000Y-136765500D03*
G36*
G01*
X46923500Y-123519000D02*
X46923500Y-123819000D01*
G75*
G02*
X46773500Y-123969000I-150000J0D01*
G01*
X45123500Y-123969000D01*
G75*
G02*
X44973500Y-123819000I0J150000D01*
G01*
X44973500Y-123519000D01*
G75*
G02*
X45123500Y-123369000I150000J0D01*
G01*
X46773500Y-123369000D01*
G75*
G02*
X46923500Y-123519000I0J-150000D01*
G01*
G37*
G36*
G01*
X46923500Y-122249000D02*
X46923500Y-122549000D01*
G75*
G02*
X46773500Y-122699000I-150000J0D01*
G01*
X45123500Y-122699000D01*
G75*
G02*
X44973500Y-122549000I0J150000D01*
G01*
X44973500Y-122249000D01*
G75*
G02*
X45123500Y-122099000I150000J0D01*
G01*
X46773500Y-122099000D01*
G75*
G02*
X46923500Y-122249000I0J-150000D01*
G01*
G37*
G36*
G01*
X46923500Y-120979000D02*
X46923500Y-121279000D01*
G75*
G02*
X46773500Y-121429000I-150000J0D01*
G01*
X45123500Y-121429000D01*
G75*
G02*
X44973500Y-121279000I0J150000D01*
G01*
X44973500Y-120979000D01*
G75*
G02*
X45123500Y-120829000I150000J0D01*
G01*
X46773500Y-120829000D01*
G75*
G02*
X46923500Y-120979000I0J-150000D01*
G01*
G37*
G36*
G01*
X46923500Y-119709000D02*
X46923500Y-120009000D01*
G75*
G02*
X46773500Y-120159000I-150000J0D01*
G01*
X45123500Y-120159000D01*
G75*
G02*
X44973500Y-120009000I0J150000D01*
G01*
X44973500Y-119709000D01*
G75*
G02*
X45123500Y-119559000I150000J0D01*
G01*
X46773500Y-119559000D01*
G75*
G02*
X46923500Y-119709000I0J-150000D01*
G01*
G37*
G36*
G01*
X46923500Y-118439000D02*
X46923500Y-118739000D01*
G75*
G02*
X46773500Y-118889000I-150000J0D01*
G01*
X45123500Y-118889000D01*
G75*
G02*
X44973500Y-118739000I0J150000D01*
G01*
X44973500Y-118439000D01*
G75*
G02*
X45123500Y-118289000I150000J0D01*
G01*
X46773500Y-118289000D01*
G75*
G02*
X46923500Y-118439000I0J-150000D01*
G01*
G37*
G36*
G01*
X46923500Y-117169000D02*
X46923500Y-117469000D01*
G75*
G02*
X46773500Y-117619000I-150000J0D01*
G01*
X45123500Y-117619000D01*
G75*
G02*
X44973500Y-117469000I0J150000D01*
G01*
X44973500Y-117169000D01*
G75*
G02*
X45123500Y-117019000I150000J0D01*
G01*
X46773500Y-117019000D01*
G75*
G02*
X46923500Y-117169000I0J-150000D01*
G01*
G37*
G36*
G01*
X46923500Y-115899000D02*
X46923500Y-116199000D01*
G75*
G02*
X46773500Y-116349000I-150000J0D01*
G01*
X45123500Y-116349000D01*
G75*
G02*
X44973500Y-116199000I0J150000D01*
G01*
X44973500Y-115899000D01*
G75*
G02*
X45123500Y-115749000I150000J0D01*
G01*
X46773500Y-115749000D01*
G75*
G02*
X46923500Y-115899000I0J-150000D01*
G01*
G37*
G36*
G01*
X46923500Y-114629000D02*
X46923500Y-114929000D01*
G75*
G02*
X46773500Y-115079000I-150000J0D01*
G01*
X45123500Y-115079000D01*
G75*
G02*
X44973500Y-114929000I0J150000D01*
G01*
X44973500Y-114629000D01*
G75*
G02*
X45123500Y-114479000I150000J0D01*
G01*
X46773500Y-114479000D01*
G75*
G02*
X46923500Y-114629000I0J-150000D01*
G01*
G37*
G36*
G01*
X51873500Y-114629000D02*
X51873500Y-114929000D01*
G75*
G02*
X51723500Y-115079000I-150000J0D01*
G01*
X50073500Y-115079000D01*
G75*
G02*
X49923500Y-114929000I0J150000D01*
G01*
X49923500Y-114629000D01*
G75*
G02*
X50073500Y-114479000I150000J0D01*
G01*
X51723500Y-114479000D01*
G75*
G02*
X51873500Y-114629000I0J-150000D01*
G01*
G37*
G36*
G01*
X51873500Y-115899000D02*
X51873500Y-116199000D01*
G75*
G02*
X51723500Y-116349000I-150000J0D01*
G01*
X50073500Y-116349000D01*
G75*
G02*
X49923500Y-116199000I0J150000D01*
G01*
X49923500Y-115899000D01*
G75*
G02*
X50073500Y-115749000I150000J0D01*
G01*
X51723500Y-115749000D01*
G75*
G02*
X51873500Y-115899000I0J-150000D01*
G01*
G37*
G36*
G01*
X51873500Y-117169000D02*
X51873500Y-117469000D01*
G75*
G02*
X51723500Y-117619000I-150000J0D01*
G01*
X50073500Y-117619000D01*
G75*
G02*
X49923500Y-117469000I0J150000D01*
G01*
X49923500Y-117169000D01*
G75*
G02*
X50073500Y-117019000I150000J0D01*
G01*
X51723500Y-117019000D01*
G75*
G02*
X51873500Y-117169000I0J-150000D01*
G01*
G37*
G36*
G01*
X51873500Y-118439000D02*
X51873500Y-118739000D01*
G75*
G02*
X51723500Y-118889000I-150000J0D01*
G01*
X50073500Y-118889000D01*
G75*
G02*
X49923500Y-118739000I0J150000D01*
G01*
X49923500Y-118439000D01*
G75*
G02*
X50073500Y-118289000I150000J0D01*
G01*
X51723500Y-118289000D01*
G75*
G02*
X51873500Y-118439000I0J-150000D01*
G01*
G37*
G36*
G01*
X51873500Y-119709000D02*
X51873500Y-120009000D01*
G75*
G02*
X51723500Y-120159000I-150000J0D01*
G01*
X50073500Y-120159000D01*
G75*
G02*
X49923500Y-120009000I0J150000D01*
G01*
X49923500Y-119709000D01*
G75*
G02*
X50073500Y-119559000I150000J0D01*
G01*
X51723500Y-119559000D01*
G75*
G02*
X51873500Y-119709000I0J-150000D01*
G01*
G37*
G36*
G01*
X51873500Y-120979000D02*
X51873500Y-121279000D01*
G75*
G02*
X51723500Y-121429000I-150000J0D01*
G01*
X50073500Y-121429000D01*
G75*
G02*
X49923500Y-121279000I0J150000D01*
G01*
X49923500Y-120979000D01*
G75*
G02*
X50073500Y-120829000I150000J0D01*
G01*
X51723500Y-120829000D01*
G75*
G02*
X51873500Y-120979000I0J-150000D01*
G01*
G37*
G36*
G01*
X51873500Y-122249000D02*
X51873500Y-122549000D01*
G75*
G02*
X51723500Y-122699000I-150000J0D01*
G01*
X50073500Y-122699000D01*
G75*
G02*
X49923500Y-122549000I0J150000D01*
G01*
X49923500Y-122249000D01*
G75*
G02*
X50073500Y-122099000I150000J0D01*
G01*
X51723500Y-122099000D01*
G75*
G02*
X51873500Y-122249000I0J-150000D01*
G01*
G37*
G36*
G01*
X51873500Y-123519000D02*
X51873500Y-123819000D01*
G75*
G02*
X51723500Y-123969000I-150000J0D01*
G01*
X50073500Y-123969000D01*
G75*
G02*
X49923500Y-123819000I0J150000D01*
G01*
X49923500Y-123519000D01*
G75*
G02*
X50073500Y-123369000I150000J0D01*
G01*
X51723500Y-123369000D01*
G75*
G02*
X51873500Y-123519000I0J-150000D01*
G01*
G37*
D18*
X91696388Y-80411806D03*
X91696388Y-75911806D03*
X83746388Y-75911806D03*
X83746388Y-80411806D03*
G36*
G01*
X104160000Y-140758500D02*
X104160000Y-141308500D01*
G75*
G02*
X103960000Y-141508500I-200000J0D01*
G01*
X103560000Y-141508500D01*
G75*
G02*
X103360000Y-141308500I0J200000D01*
G01*
X103360000Y-140758500D01*
G75*
G02*
X103560000Y-140558500I200000J0D01*
G01*
X103960000Y-140558500D01*
G75*
G02*
X104160000Y-140758500I0J-200000D01*
G01*
G37*
G36*
G01*
X105810000Y-140758500D02*
X105810000Y-141308500D01*
G75*
G02*
X105610000Y-141508500I-200000J0D01*
G01*
X105210000Y-141508500D01*
G75*
G02*
X105010000Y-141308500I0J200000D01*
G01*
X105010000Y-140758500D01*
G75*
G02*
X105210000Y-140558500I200000J0D01*
G01*
X105610000Y-140558500D01*
G75*
G02*
X105810000Y-140758500I0J-200000D01*
G01*
G37*
G36*
G01*
X103524000Y-160253000D02*
X103524000Y-160803000D01*
G75*
G02*
X103324000Y-161003000I-200000J0D01*
G01*
X102924000Y-161003000D01*
G75*
G02*
X102724000Y-160803000I0J200000D01*
G01*
X102724000Y-160253000D01*
G75*
G02*
X102924000Y-160053000I200000J0D01*
G01*
X103324000Y-160053000D01*
G75*
G02*
X103524000Y-160253000I0J-200000D01*
G01*
G37*
G36*
G01*
X105174000Y-160253000D02*
X105174000Y-160803000D01*
G75*
G02*
X104974000Y-161003000I-200000J0D01*
G01*
X104574000Y-161003000D01*
G75*
G02*
X104374000Y-160803000I0J200000D01*
G01*
X104374000Y-160253000D01*
G75*
G02*
X104574000Y-160053000I200000J0D01*
G01*
X104974000Y-160053000D01*
G75*
G02*
X105174000Y-160253000I0J-200000D01*
G01*
G37*
G36*
G01*
X85605962Y-86342872D02*
X86155962Y-86342872D01*
G75*
G02*
X86355962Y-86542872I0J-200000D01*
G01*
X86355962Y-86942872D01*
G75*
G02*
X86155962Y-87142872I-200000J0D01*
G01*
X85605962Y-87142872D01*
G75*
G02*
X85405962Y-86942872I0J200000D01*
G01*
X85405962Y-86542872D01*
G75*
G02*
X85605962Y-86342872I200000J0D01*
G01*
G37*
G36*
G01*
X85605962Y-84692872D02*
X86155962Y-84692872D01*
G75*
G02*
X86355962Y-84892872I0J-200000D01*
G01*
X86355962Y-85292872D01*
G75*
G02*
X86155962Y-85492872I-200000J0D01*
G01*
X85605962Y-85492872D01*
G75*
G02*
X85405962Y-85292872I0J200000D01*
G01*
X85405962Y-84892872D01*
G75*
G02*
X85605962Y-84692872I200000J0D01*
G01*
G37*
G36*
G01*
X83873986Y-83780169D02*
X84423986Y-83780169D01*
G75*
G02*
X84623986Y-83980169I0J-200000D01*
G01*
X84623986Y-84380169D01*
G75*
G02*
X84423986Y-84580169I-200000J0D01*
G01*
X83873986Y-84580169D01*
G75*
G02*
X83673986Y-84380169I0J200000D01*
G01*
X83673986Y-83980169D01*
G75*
G02*
X83873986Y-83780169I200000J0D01*
G01*
G37*
G36*
G01*
X83873986Y-82130169D02*
X84423986Y-82130169D01*
G75*
G02*
X84623986Y-82330169I0J-200000D01*
G01*
X84623986Y-82730169D01*
G75*
G02*
X84423986Y-82930169I-200000J0D01*
G01*
X83873986Y-82930169D01*
G75*
G02*
X83673986Y-82730169I0J200000D01*
G01*
X83673986Y-82330169D01*
G75*
G02*
X83873986Y-82130169I200000J0D01*
G01*
G37*
G36*
G01*
X105685000Y-109938000D02*
X105135000Y-109938000D01*
G75*
G02*
X104935000Y-109738000I0J200000D01*
G01*
X104935000Y-109338000D01*
G75*
G02*
X105135000Y-109138000I200000J0D01*
G01*
X105685000Y-109138000D01*
G75*
G02*
X105885000Y-109338000I0J-200000D01*
G01*
X105885000Y-109738000D01*
G75*
G02*
X105685000Y-109938000I-200000J0D01*
G01*
G37*
G36*
G01*
X105685000Y-111588000D02*
X105135000Y-111588000D01*
G75*
G02*
X104935000Y-111388000I0J200000D01*
G01*
X104935000Y-110988000D01*
G75*
G02*
X105135000Y-110788000I200000J0D01*
G01*
X105685000Y-110788000D01*
G75*
G02*
X105885000Y-110988000I0J-200000D01*
G01*
X105885000Y-111388000D01*
G75*
G02*
X105685000Y-111588000I-200000J0D01*
G01*
G37*
G36*
G01*
X105009000Y-139784500D02*
X105009000Y-139234500D01*
G75*
G02*
X105209000Y-139034500I200000J0D01*
G01*
X105609000Y-139034500D01*
G75*
G02*
X105809000Y-139234500I0J-200000D01*
G01*
X105809000Y-139784500D01*
G75*
G02*
X105609000Y-139984500I-200000J0D01*
G01*
X105209000Y-139984500D01*
G75*
G02*
X105009000Y-139784500I0J200000D01*
G01*
G37*
G36*
G01*
X103359000Y-139784500D02*
X103359000Y-139234500D01*
G75*
G02*
X103559000Y-139034500I200000J0D01*
G01*
X103959000Y-139034500D01*
G75*
G02*
X104159000Y-139234500I0J-200000D01*
G01*
X104159000Y-139784500D01*
G75*
G02*
X103959000Y-139984500I-200000J0D01*
G01*
X103559000Y-139984500D01*
G75*
G02*
X103359000Y-139784500I0J200000D01*
G01*
G37*
G36*
G01*
X105135000Y-107423000D02*
X105685000Y-107423000D01*
G75*
G02*
X105885000Y-107623000I0J-200000D01*
G01*
X105885000Y-108023000D01*
G75*
G02*
X105685000Y-108223000I-200000J0D01*
G01*
X105135000Y-108223000D01*
G75*
G02*
X104935000Y-108023000I0J200000D01*
G01*
X104935000Y-107623000D01*
G75*
G02*
X105135000Y-107423000I200000J0D01*
G01*
G37*
G36*
G01*
X105135000Y-105773000D02*
X105685000Y-105773000D01*
G75*
G02*
X105885000Y-105973000I0J-200000D01*
G01*
X105885000Y-106373000D01*
G75*
G02*
X105685000Y-106573000I-200000J0D01*
G01*
X105135000Y-106573000D01*
G75*
G02*
X104935000Y-106373000I0J200000D01*
G01*
X104935000Y-105973000D01*
G75*
G02*
X105135000Y-105773000I200000J0D01*
G01*
G37*
G36*
G01*
X102510000Y-139021500D02*
X101960000Y-139021500D01*
G75*
G02*
X101760000Y-138821500I0J200000D01*
G01*
X101760000Y-138421500D01*
G75*
G02*
X101960000Y-138221500I200000J0D01*
G01*
X102510000Y-138221500D01*
G75*
G02*
X102710000Y-138421500I0J-200000D01*
G01*
X102710000Y-138821500D01*
G75*
G02*
X102510000Y-139021500I-200000J0D01*
G01*
G37*
G36*
G01*
X102510000Y-140671500D02*
X101960000Y-140671500D01*
G75*
G02*
X101760000Y-140471500I0J200000D01*
G01*
X101760000Y-140071500D01*
G75*
G02*
X101960000Y-139871500I200000J0D01*
G01*
X102510000Y-139871500D01*
G75*
G02*
X102710000Y-140071500I0J-200000D01*
G01*
X102710000Y-140471500D01*
G75*
G02*
X102510000Y-140671500I-200000J0D01*
G01*
G37*
G36*
G01*
X106025000Y-157564500D02*
X106025000Y-157014500D01*
G75*
G02*
X106225000Y-156814500I200000J0D01*
G01*
X106625000Y-156814500D01*
G75*
G02*
X106825000Y-157014500I0J-200000D01*
G01*
X106825000Y-157564500D01*
G75*
G02*
X106625000Y-157764500I-200000J0D01*
G01*
X106225000Y-157764500D01*
G75*
G02*
X106025000Y-157564500I0J200000D01*
G01*
G37*
G36*
G01*
X104375000Y-157564500D02*
X104375000Y-157014500D01*
G75*
G02*
X104575000Y-156814500I200000J0D01*
G01*
X104975000Y-156814500D01*
G75*
G02*
X105175000Y-157014500I0J-200000D01*
G01*
X105175000Y-157564500D01*
G75*
G02*
X104975000Y-157764500I-200000J0D01*
G01*
X104575000Y-157764500D01*
G75*
G02*
X104375000Y-157564500I0J200000D01*
G01*
G37*
G36*
G01*
X106025000Y-155850000D02*
X106025000Y-155300000D01*
G75*
G02*
X106225000Y-155100000I200000J0D01*
G01*
X106625000Y-155100000D01*
G75*
G02*
X106825000Y-155300000I0J-200000D01*
G01*
X106825000Y-155850000D01*
G75*
G02*
X106625000Y-156050000I-200000J0D01*
G01*
X106225000Y-156050000D01*
G75*
G02*
X106025000Y-155850000I0J200000D01*
G01*
G37*
G36*
G01*
X104375000Y-155850000D02*
X104375000Y-155300000D01*
G75*
G02*
X104575000Y-155100000I200000J0D01*
G01*
X104975000Y-155100000D01*
G75*
G02*
X105175000Y-155300000I0J-200000D01*
G01*
X105175000Y-155850000D01*
G75*
G02*
X104975000Y-156050000I-200000J0D01*
G01*
X104575000Y-156050000D01*
G75*
G02*
X104375000Y-155850000I0J200000D01*
G01*
G37*
G36*
G01*
X93683500Y-153435000D02*
X93133500Y-153435000D01*
G75*
G02*
X92933500Y-153235000I0J200000D01*
G01*
X92933500Y-152835000D01*
G75*
G02*
X93133500Y-152635000I200000J0D01*
G01*
X93683500Y-152635000D01*
G75*
G02*
X93883500Y-152835000I0J-200000D01*
G01*
X93883500Y-153235000D01*
G75*
G02*
X93683500Y-153435000I-200000J0D01*
G01*
G37*
G36*
G01*
X93683500Y-155085000D02*
X93133500Y-155085000D01*
G75*
G02*
X92933500Y-154885000I0J200000D01*
G01*
X92933500Y-154485000D01*
G75*
G02*
X93133500Y-154285000I200000J0D01*
G01*
X93683500Y-154285000D01*
G75*
G02*
X93883500Y-154485000I0J-200000D01*
G01*
X93883500Y-154885000D01*
G75*
G02*
X93683500Y-155085000I-200000J0D01*
G01*
G37*
G36*
G01*
X93682000Y-155935000D02*
X93682000Y-156485000D01*
G75*
G02*
X93482000Y-156685000I-200000J0D01*
G01*
X93082000Y-156685000D01*
G75*
G02*
X92882000Y-156485000I0J200000D01*
G01*
X92882000Y-155935000D01*
G75*
G02*
X93082000Y-155735000I200000J0D01*
G01*
X93482000Y-155735000D01*
G75*
G02*
X93682000Y-155935000I0J-200000D01*
G01*
G37*
G36*
G01*
X95332000Y-155935000D02*
X95332000Y-156485000D01*
G75*
G02*
X95132000Y-156685000I-200000J0D01*
G01*
X94732000Y-156685000D01*
G75*
G02*
X94532000Y-156485000I0J200000D01*
G01*
X94532000Y-155935000D01*
G75*
G02*
X94732000Y-155735000I200000J0D01*
G01*
X95132000Y-155735000D01*
G75*
G02*
X95332000Y-155935000I0J-200000D01*
G01*
G37*
G36*
G01*
X94721000Y-154285000D02*
X95271000Y-154285000D01*
G75*
G02*
X95471000Y-154485000I0J-200000D01*
G01*
X95471000Y-154885000D01*
G75*
G02*
X95271000Y-155085000I-200000J0D01*
G01*
X94721000Y-155085000D01*
G75*
G02*
X94521000Y-154885000I0J200000D01*
G01*
X94521000Y-154485000D01*
G75*
G02*
X94721000Y-154285000I200000J0D01*
G01*
G37*
G36*
G01*
X94721000Y-152635000D02*
X95271000Y-152635000D01*
G75*
G02*
X95471000Y-152835000I0J-200000D01*
G01*
X95471000Y-153235000D01*
G75*
G02*
X95271000Y-153435000I-200000J0D01*
G01*
X94721000Y-153435000D01*
G75*
G02*
X94521000Y-153235000I0J200000D01*
G01*
X94521000Y-152835000D01*
G75*
G02*
X94721000Y-152635000I200000J0D01*
G01*
G37*
G36*
G01*
X81767000Y-118026500D02*
X82317000Y-118026500D01*
G75*
G02*
X82517000Y-118226500I0J-200000D01*
G01*
X82517000Y-118626500D01*
G75*
G02*
X82317000Y-118826500I-200000J0D01*
G01*
X81767000Y-118826500D01*
G75*
G02*
X81567000Y-118626500I0J200000D01*
G01*
X81567000Y-118226500D01*
G75*
G02*
X81767000Y-118026500I200000J0D01*
G01*
G37*
G36*
G01*
X81767000Y-116376500D02*
X82317000Y-116376500D01*
G75*
G02*
X82517000Y-116576500I0J-200000D01*
G01*
X82517000Y-116976500D01*
G75*
G02*
X82317000Y-117176500I-200000J0D01*
G01*
X81767000Y-117176500D01*
G75*
G02*
X81567000Y-116976500I0J200000D01*
G01*
X81567000Y-116576500D01*
G75*
G02*
X81767000Y-116376500I200000J0D01*
G01*
G37*
G36*
G01*
X85831000Y-117963000D02*
X86381000Y-117963000D01*
G75*
G02*
X86581000Y-118163000I0J-200000D01*
G01*
X86581000Y-118563000D01*
G75*
G02*
X86381000Y-118763000I-200000J0D01*
G01*
X85831000Y-118763000D01*
G75*
G02*
X85631000Y-118563000I0J200000D01*
G01*
X85631000Y-118163000D01*
G75*
G02*
X85831000Y-117963000I200000J0D01*
G01*
G37*
G36*
G01*
X85831000Y-116313000D02*
X86381000Y-116313000D01*
G75*
G02*
X86581000Y-116513000I0J-200000D01*
G01*
X86581000Y-116913000D01*
G75*
G02*
X86381000Y-117113000I-200000J0D01*
G01*
X85831000Y-117113000D01*
G75*
G02*
X85631000Y-116913000I0J200000D01*
G01*
X85631000Y-116513000D01*
G75*
G02*
X85831000Y-116313000I200000J0D01*
G01*
G37*
G36*
G01*
X74972500Y-109963000D02*
X75522500Y-109963000D01*
G75*
G02*
X75722500Y-110163000I0J-200000D01*
G01*
X75722500Y-110563000D01*
G75*
G02*
X75522500Y-110763000I-200000J0D01*
G01*
X74972500Y-110763000D01*
G75*
G02*
X74772500Y-110563000I0J200000D01*
G01*
X74772500Y-110163000D01*
G75*
G02*
X74972500Y-109963000I200000J0D01*
G01*
G37*
G36*
G01*
X74972500Y-108313000D02*
X75522500Y-108313000D01*
G75*
G02*
X75722500Y-108513000I0J-200000D01*
G01*
X75722500Y-108913000D01*
G75*
G02*
X75522500Y-109113000I-200000J0D01*
G01*
X74972500Y-109113000D01*
G75*
G02*
X74772500Y-108913000I0J200000D01*
G01*
X74772500Y-108513000D01*
G75*
G02*
X74972500Y-108313000I200000J0D01*
G01*
G37*
G36*
G01*
X69956000Y-110280500D02*
X70506000Y-110280500D01*
G75*
G02*
X70706000Y-110480500I0J-200000D01*
G01*
X70706000Y-110880500D01*
G75*
G02*
X70506000Y-111080500I-200000J0D01*
G01*
X69956000Y-111080500D01*
G75*
G02*
X69756000Y-110880500I0J200000D01*
G01*
X69756000Y-110480500D01*
G75*
G02*
X69956000Y-110280500I200000J0D01*
G01*
G37*
G36*
G01*
X69956000Y-108630500D02*
X70506000Y-108630500D01*
G75*
G02*
X70706000Y-108830500I0J-200000D01*
G01*
X70706000Y-109230500D01*
G75*
G02*
X70506000Y-109430500I-200000J0D01*
G01*
X69956000Y-109430500D01*
G75*
G02*
X69756000Y-109230500I0J200000D01*
G01*
X69756000Y-108830500D01*
G75*
G02*
X69956000Y-108630500I200000J0D01*
G01*
G37*
G36*
G01*
X78910500Y-116607000D02*
X78910500Y-116057000D01*
G75*
G02*
X79110500Y-115857000I200000J0D01*
G01*
X79510500Y-115857000D01*
G75*
G02*
X79710500Y-116057000I0J-200000D01*
G01*
X79710500Y-116607000D01*
G75*
G02*
X79510500Y-116807000I-200000J0D01*
G01*
X79110500Y-116807000D01*
G75*
G02*
X78910500Y-116607000I0J200000D01*
G01*
G37*
G36*
G01*
X77260500Y-116607000D02*
X77260500Y-116057000D01*
G75*
G02*
X77460500Y-115857000I200000J0D01*
G01*
X77860500Y-115857000D01*
G75*
G02*
X78060500Y-116057000I0J-200000D01*
G01*
X78060500Y-116607000D01*
G75*
G02*
X77860500Y-116807000I-200000J0D01*
G01*
X77460500Y-116807000D01*
G75*
G02*
X77260500Y-116607000I0J200000D01*
G01*
G37*
G36*
G01*
X105770000Y-121837500D02*
X106320000Y-121837500D01*
G75*
G02*
X106520000Y-122037500I0J-200000D01*
G01*
X106520000Y-122437500D01*
G75*
G02*
X106320000Y-122637500I-200000J0D01*
G01*
X105770000Y-122637500D01*
G75*
G02*
X105570000Y-122437500I0J200000D01*
G01*
X105570000Y-122037500D01*
G75*
G02*
X105770000Y-121837500I200000J0D01*
G01*
G37*
G36*
G01*
X105770000Y-120187500D02*
X106320000Y-120187500D01*
G75*
G02*
X106520000Y-120387500I0J-200000D01*
G01*
X106520000Y-120787500D01*
G75*
G02*
X106320000Y-120987500I-200000J0D01*
G01*
X105770000Y-120987500D01*
G75*
G02*
X105570000Y-120787500I0J200000D01*
G01*
X105570000Y-120387500D01*
G75*
G02*
X105770000Y-120187500I200000J0D01*
G01*
G37*
G36*
G01*
X100626500Y-122725500D02*
X101176500Y-122725500D01*
G75*
G02*
X101376500Y-122925500I0J-200000D01*
G01*
X101376500Y-123325500D01*
G75*
G02*
X101176500Y-123525500I-200000J0D01*
G01*
X100626500Y-123525500D01*
G75*
G02*
X100426500Y-123325500I0J200000D01*
G01*
X100426500Y-122925500D01*
G75*
G02*
X100626500Y-122725500I200000J0D01*
G01*
G37*
G36*
G01*
X100626500Y-121075500D02*
X101176500Y-121075500D01*
G75*
G02*
X101376500Y-121275500I0J-200000D01*
G01*
X101376500Y-121675500D01*
G75*
G02*
X101176500Y-121875500I-200000J0D01*
G01*
X100626500Y-121875500D01*
G75*
G02*
X100426500Y-121675500I0J200000D01*
G01*
X100426500Y-121275500D01*
G75*
G02*
X100626500Y-121075500I200000J0D01*
G01*
G37*
G36*
G01*
X105770000Y-129203500D02*
X106320000Y-129203500D01*
G75*
G02*
X106520000Y-129403500I0J-200000D01*
G01*
X106520000Y-129803500D01*
G75*
G02*
X106320000Y-130003500I-200000J0D01*
G01*
X105770000Y-130003500D01*
G75*
G02*
X105570000Y-129803500I0J200000D01*
G01*
X105570000Y-129403500D01*
G75*
G02*
X105770000Y-129203500I200000J0D01*
G01*
G37*
G36*
G01*
X105770000Y-127553500D02*
X106320000Y-127553500D01*
G75*
G02*
X106520000Y-127753500I0J-200000D01*
G01*
X106520000Y-128153500D01*
G75*
G02*
X106320000Y-128353500I-200000J0D01*
G01*
X105770000Y-128353500D01*
G75*
G02*
X105570000Y-128153500I0J200000D01*
G01*
X105570000Y-127753500D01*
G75*
G02*
X105770000Y-127553500I200000J0D01*
G01*
G37*
G36*
G01*
X100499500Y-130155500D02*
X101049500Y-130155500D01*
G75*
G02*
X101249500Y-130355500I0J-200000D01*
G01*
X101249500Y-130755500D01*
G75*
G02*
X101049500Y-130955500I-200000J0D01*
G01*
X100499500Y-130955500D01*
G75*
G02*
X100299500Y-130755500I0J200000D01*
G01*
X100299500Y-130355500D01*
G75*
G02*
X100499500Y-130155500I200000J0D01*
G01*
G37*
G36*
G01*
X100499500Y-128505500D02*
X101049500Y-128505500D01*
G75*
G02*
X101249500Y-128705500I0J-200000D01*
G01*
X101249500Y-129105500D01*
G75*
G02*
X101049500Y-129305500I-200000J0D01*
G01*
X100499500Y-129305500D01*
G75*
G02*
X100299500Y-129105500I0J200000D01*
G01*
X100299500Y-128705500D01*
G75*
G02*
X100499500Y-128505500I200000J0D01*
G01*
G37*
G36*
G01*
X106320000Y-117939000D02*
X105770000Y-117939000D01*
G75*
G02*
X105570000Y-117739000I0J200000D01*
G01*
X105570000Y-117339000D01*
G75*
G02*
X105770000Y-117139000I200000J0D01*
G01*
X106320000Y-117139000D01*
G75*
G02*
X106520000Y-117339000I0J-200000D01*
G01*
X106520000Y-117739000D01*
G75*
G02*
X106320000Y-117939000I-200000J0D01*
G01*
G37*
G36*
G01*
X106320000Y-119589000D02*
X105770000Y-119589000D01*
G75*
G02*
X105570000Y-119389000I0J200000D01*
G01*
X105570000Y-118989000D01*
G75*
G02*
X105770000Y-118789000I200000J0D01*
G01*
X106320000Y-118789000D01*
G75*
G02*
X106520000Y-118989000I0J-200000D01*
G01*
X106520000Y-119389000D01*
G75*
G02*
X106320000Y-119589000I-200000J0D01*
G01*
G37*
G36*
G01*
X106320000Y-125241500D02*
X105770000Y-125241500D01*
G75*
G02*
X105570000Y-125041500I0J200000D01*
G01*
X105570000Y-124641500D01*
G75*
G02*
X105770000Y-124441500I200000J0D01*
G01*
X106320000Y-124441500D01*
G75*
G02*
X106520000Y-124641500I0J-200000D01*
G01*
X106520000Y-125041500D01*
G75*
G02*
X106320000Y-125241500I-200000J0D01*
G01*
G37*
G36*
G01*
X106320000Y-126891500D02*
X105770000Y-126891500D01*
G75*
G02*
X105570000Y-126691500I0J200000D01*
G01*
X105570000Y-126291500D01*
G75*
G02*
X105770000Y-126091500I200000J0D01*
G01*
X106320000Y-126091500D01*
G75*
G02*
X106520000Y-126291500I0J-200000D01*
G01*
X106520000Y-126691500D01*
G75*
G02*
X106320000Y-126891500I-200000J0D01*
G01*
G37*
G36*
G01*
X108247500Y-81999500D02*
X108247500Y-81449500D01*
G75*
G02*
X108447500Y-81249500I200000J0D01*
G01*
X108847500Y-81249500D01*
G75*
G02*
X109047500Y-81449500I0J-200000D01*
G01*
X109047500Y-81999500D01*
G75*
G02*
X108847500Y-82199500I-200000J0D01*
G01*
X108447500Y-82199500D01*
G75*
G02*
X108247500Y-81999500I0J200000D01*
G01*
G37*
G36*
G01*
X106597500Y-81999500D02*
X106597500Y-81449500D01*
G75*
G02*
X106797500Y-81249500I200000J0D01*
G01*
X107197500Y-81249500D01*
G75*
G02*
X107397500Y-81449500I0J-200000D01*
G01*
X107397500Y-81999500D01*
G75*
G02*
X107197500Y-82199500I-200000J0D01*
G01*
X106797500Y-82199500D01*
G75*
G02*
X106597500Y-81999500I0J200000D01*
G01*
G37*
G36*
G01*
X107334000Y-82973500D02*
X107334000Y-83523500D01*
G75*
G02*
X107134000Y-83723500I-200000J0D01*
G01*
X106734000Y-83723500D01*
G75*
G02*
X106534000Y-83523500I0J200000D01*
G01*
X106534000Y-82973500D01*
G75*
G02*
X106734000Y-82773500I200000J0D01*
G01*
X107134000Y-82773500D01*
G75*
G02*
X107334000Y-82973500I0J-200000D01*
G01*
G37*
G36*
G01*
X108984000Y-82973500D02*
X108984000Y-83523500D01*
G75*
G02*
X108784000Y-83723500I-200000J0D01*
G01*
X108384000Y-83723500D01*
G75*
G02*
X108184000Y-83523500I0J200000D01*
G01*
X108184000Y-82973500D01*
G75*
G02*
X108384000Y-82773500I200000J0D01*
G01*
X108784000Y-82773500D01*
G75*
G02*
X108984000Y-82973500I0J-200000D01*
G01*
G37*
G36*
G01*
X107347500Y-79694500D02*
X107347500Y-80244500D01*
G75*
G02*
X107147500Y-80444500I-200000J0D01*
G01*
X106747500Y-80444500D01*
G75*
G02*
X106547500Y-80244500I0J200000D01*
G01*
X106547500Y-79694500D01*
G75*
G02*
X106747500Y-79494500I200000J0D01*
G01*
X107147500Y-79494500D01*
G75*
G02*
X107347500Y-79694500I0J-200000D01*
G01*
G37*
G36*
G01*
X108997500Y-79694500D02*
X108997500Y-80244500D01*
G75*
G02*
X108797500Y-80444500I-200000J0D01*
G01*
X108397500Y-80444500D01*
G75*
G02*
X108197500Y-80244500I0J200000D01*
G01*
X108197500Y-79694500D01*
G75*
G02*
X108397500Y-79494500I200000J0D01*
G01*
X108797500Y-79494500D01*
G75*
G02*
X108997500Y-79694500I0J-200000D01*
G01*
G37*
G36*
G01*
X95842500Y-79204500D02*
X95292500Y-79204500D01*
G75*
G02*
X95092500Y-79004500I0J200000D01*
G01*
X95092500Y-78604500D01*
G75*
G02*
X95292500Y-78404500I200000J0D01*
G01*
X95842500Y-78404500D01*
G75*
G02*
X96042500Y-78604500I0J-200000D01*
G01*
X96042500Y-79004500D01*
G75*
G02*
X95842500Y-79204500I-200000J0D01*
G01*
G37*
G36*
G01*
X95842500Y-80854500D02*
X95292500Y-80854500D01*
G75*
G02*
X95092500Y-80654500I0J200000D01*
G01*
X95092500Y-80254500D01*
G75*
G02*
X95292500Y-80054500I200000J0D01*
G01*
X95842500Y-80054500D01*
G75*
G02*
X96042500Y-80254500I0J-200000D01*
G01*
X96042500Y-80654500D01*
G75*
G02*
X95842500Y-80854500I-200000J0D01*
G01*
G37*
G36*
G01*
X97070500Y-80054500D02*
X97620500Y-80054500D01*
G75*
G02*
X97820500Y-80254500I0J-200000D01*
G01*
X97820500Y-80654500D01*
G75*
G02*
X97620500Y-80854500I-200000J0D01*
G01*
X97070500Y-80854500D01*
G75*
G02*
X96870500Y-80654500I0J200000D01*
G01*
X96870500Y-80254500D01*
G75*
G02*
X97070500Y-80054500I200000J0D01*
G01*
G37*
G36*
G01*
X97070500Y-78404500D02*
X97620500Y-78404500D01*
G75*
G02*
X97820500Y-78604500I0J-200000D01*
G01*
X97820500Y-79004500D01*
G75*
G02*
X97620500Y-79204500I-200000J0D01*
G01*
X97070500Y-79204500D01*
G75*
G02*
X96870500Y-79004500I0J200000D01*
G01*
X96870500Y-78604500D01*
G75*
G02*
X97070500Y-78404500I200000J0D01*
G01*
G37*
G36*
G01*
X98340500Y-76878500D02*
X98890500Y-76878500D01*
G75*
G02*
X99090500Y-77078500I0J-200000D01*
G01*
X99090500Y-77478500D01*
G75*
G02*
X98890500Y-77678500I-200000J0D01*
G01*
X98340500Y-77678500D01*
G75*
G02*
X98140500Y-77478500I0J200000D01*
G01*
X98140500Y-77078500D01*
G75*
G02*
X98340500Y-76878500I200000J0D01*
G01*
G37*
G36*
G01*
X98340500Y-75228500D02*
X98890500Y-75228500D01*
G75*
G02*
X99090500Y-75428500I0J-200000D01*
G01*
X99090500Y-75828500D01*
G75*
G02*
X98890500Y-76028500I-200000J0D01*
G01*
X98340500Y-76028500D01*
G75*
G02*
X98140500Y-75828500I0J200000D01*
G01*
X98140500Y-75428500D01*
G75*
G02*
X98340500Y-75228500I200000J0D01*
G01*
G37*
G36*
G01*
X50756500Y-80243000D02*
X50756500Y-80793000D01*
G75*
G02*
X50556500Y-80993000I-200000J0D01*
G01*
X50156500Y-80993000D01*
G75*
G02*
X49956500Y-80793000I0J200000D01*
G01*
X49956500Y-80243000D01*
G75*
G02*
X50156500Y-80043000I200000J0D01*
G01*
X50556500Y-80043000D01*
G75*
G02*
X50756500Y-80243000I0J-200000D01*
G01*
G37*
G36*
G01*
X52406500Y-80243000D02*
X52406500Y-80793000D01*
G75*
G02*
X52206500Y-80993000I-200000J0D01*
G01*
X51806500Y-80993000D01*
G75*
G02*
X51606500Y-80793000I0J200000D01*
G01*
X51606500Y-80243000D01*
G75*
G02*
X51806500Y-80043000I200000J0D01*
G01*
X52206500Y-80043000D01*
G75*
G02*
X52406500Y-80243000I0J-200000D01*
G01*
G37*
G36*
G01*
X52471000Y-86593000D02*
X52471000Y-87143000D01*
G75*
G02*
X52271000Y-87343000I-200000J0D01*
G01*
X51871000Y-87343000D01*
G75*
G02*
X51671000Y-87143000I0J200000D01*
G01*
X51671000Y-86593000D01*
G75*
G02*
X51871000Y-86393000I200000J0D01*
G01*
X52271000Y-86393000D01*
G75*
G02*
X52471000Y-86593000I0J-200000D01*
G01*
G37*
G36*
G01*
X54121000Y-86593000D02*
X54121000Y-87143000D01*
G75*
G02*
X53921000Y-87343000I-200000J0D01*
G01*
X53521000Y-87343000D01*
G75*
G02*
X53321000Y-87143000I0J200000D01*
G01*
X53321000Y-86593000D01*
G75*
G02*
X53521000Y-86393000I200000J0D01*
G01*
X53921000Y-86393000D01*
G75*
G02*
X54121000Y-86593000I0J-200000D01*
G01*
G37*
G36*
G01*
X101199000Y-167661000D02*
X101199000Y-167111000D01*
G75*
G02*
X101399000Y-166911000I200000J0D01*
G01*
X101799000Y-166911000D01*
G75*
G02*
X101999000Y-167111000I0J-200000D01*
G01*
X101999000Y-167661000D01*
G75*
G02*
X101799000Y-167861000I-200000J0D01*
G01*
X101399000Y-167861000D01*
G75*
G02*
X101199000Y-167661000I0J200000D01*
G01*
G37*
G36*
G01*
X99549000Y-167661000D02*
X99549000Y-167111000D01*
G75*
G02*
X99749000Y-166911000I200000J0D01*
G01*
X100149000Y-166911000D01*
G75*
G02*
X100349000Y-167111000I0J-200000D01*
G01*
X100349000Y-167661000D01*
G75*
G02*
X100149000Y-167861000I-200000J0D01*
G01*
X99749000Y-167861000D01*
G75*
G02*
X99549000Y-167661000I0J200000D01*
G01*
G37*
G36*
G01*
X101199000Y-165375000D02*
X101199000Y-164825000D01*
G75*
G02*
X101399000Y-164625000I200000J0D01*
G01*
X101799000Y-164625000D01*
G75*
G02*
X101999000Y-164825000I0J-200000D01*
G01*
X101999000Y-165375000D01*
G75*
G02*
X101799000Y-165575000I-200000J0D01*
G01*
X101399000Y-165575000D01*
G75*
G02*
X101199000Y-165375000I0J200000D01*
G01*
G37*
G36*
G01*
X99549000Y-165375000D02*
X99549000Y-164825000D01*
G75*
G02*
X99749000Y-164625000I200000J0D01*
G01*
X100149000Y-164625000D01*
G75*
G02*
X100349000Y-164825000I0J-200000D01*
G01*
X100349000Y-165375000D01*
G75*
G02*
X100149000Y-165575000I-200000J0D01*
G01*
X99749000Y-165575000D01*
G75*
G02*
X99549000Y-165375000I0J200000D01*
G01*
G37*
G36*
G01*
X101200000Y-163089000D02*
X101200000Y-162539000D01*
G75*
G02*
X101400000Y-162339000I200000J0D01*
G01*
X101800000Y-162339000D01*
G75*
G02*
X102000000Y-162539000I0J-200000D01*
G01*
X102000000Y-163089000D01*
G75*
G02*
X101800000Y-163289000I-200000J0D01*
G01*
X101400000Y-163289000D01*
G75*
G02*
X101200000Y-163089000I0J200000D01*
G01*
G37*
G36*
G01*
X99550000Y-163089000D02*
X99550000Y-162539000D01*
G75*
G02*
X99750000Y-162339000I200000J0D01*
G01*
X100150000Y-162339000D01*
G75*
G02*
X100350000Y-162539000I0J-200000D01*
G01*
X100350000Y-163089000D01*
G75*
G02*
X100150000Y-163289000I-200000J0D01*
G01*
X99750000Y-163289000D01*
G75*
G02*
X99550000Y-163089000I0J200000D01*
G01*
G37*
G36*
G01*
X35983500Y-156063000D02*
X36533500Y-156063000D01*
G75*
G02*
X36733500Y-156263000I0J-200000D01*
G01*
X36733500Y-156663000D01*
G75*
G02*
X36533500Y-156863000I-200000J0D01*
G01*
X35983500Y-156863000D01*
G75*
G02*
X35783500Y-156663000I0J200000D01*
G01*
X35783500Y-156263000D01*
G75*
G02*
X35983500Y-156063000I200000J0D01*
G01*
G37*
G36*
G01*
X35983500Y-154413000D02*
X36533500Y-154413000D01*
G75*
G02*
X36733500Y-154613000I0J-200000D01*
G01*
X36733500Y-155013000D01*
G75*
G02*
X36533500Y-155213000I-200000J0D01*
G01*
X35983500Y-155213000D01*
G75*
G02*
X35783500Y-155013000I0J200000D01*
G01*
X35783500Y-154613000D01*
G75*
G02*
X35983500Y-154413000I200000J0D01*
G01*
G37*
G36*
G01*
X34016000Y-153564000D02*
X34016000Y-153014000D01*
G75*
G02*
X34216000Y-152814000I200000J0D01*
G01*
X34616000Y-152814000D01*
G75*
G02*
X34816000Y-153014000I0J-200000D01*
G01*
X34816000Y-153564000D01*
G75*
G02*
X34616000Y-153764000I-200000J0D01*
G01*
X34216000Y-153764000D01*
G75*
G02*
X34016000Y-153564000I0J200000D01*
G01*
G37*
G36*
G01*
X32366000Y-153564000D02*
X32366000Y-153014000D01*
G75*
G02*
X32566000Y-152814000I200000J0D01*
G01*
X32966000Y-152814000D01*
G75*
G02*
X33166000Y-153014000I0J-200000D01*
G01*
X33166000Y-153564000D01*
G75*
G02*
X32966000Y-153764000I-200000J0D01*
G01*
X32566000Y-153764000D01*
G75*
G02*
X32366000Y-153564000I0J200000D01*
G01*
G37*
G36*
G01*
X41635000Y-153840500D02*
X42185000Y-153840500D01*
G75*
G02*
X42385000Y-154040500I0J-200000D01*
G01*
X42385000Y-154440500D01*
G75*
G02*
X42185000Y-154640500I-200000J0D01*
G01*
X41635000Y-154640500D01*
G75*
G02*
X41435000Y-154440500I0J200000D01*
G01*
X41435000Y-154040500D01*
G75*
G02*
X41635000Y-153840500I200000J0D01*
G01*
G37*
G36*
G01*
X41635000Y-152190500D02*
X42185000Y-152190500D01*
G75*
G02*
X42385000Y-152390500I0J-200000D01*
G01*
X42385000Y-152790500D01*
G75*
G02*
X42185000Y-152990500I-200000J0D01*
G01*
X41635000Y-152990500D01*
G75*
G02*
X41435000Y-152790500I0J200000D01*
G01*
X41435000Y-152390500D01*
G75*
G02*
X41635000Y-152190500I200000J0D01*
G01*
G37*
G36*
G01*
X36174000Y-147998500D02*
X36724000Y-147998500D01*
G75*
G02*
X36924000Y-148198500I0J-200000D01*
G01*
X36924000Y-148598500D01*
G75*
G02*
X36724000Y-148798500I-200000J0D01*
G01*
X36174000Y-148798500D01*
G75*
G02*
X35974000Y-148598500I0J200000D01*
G01*
X35974000Y-148198500D01*
G75*
G02*
X36174000Y-147998500I200000J0D01*
G01*
G37*
G36*
G01*
X36174000Y-146348500D02*
X36724000Y-146348500D01*
G75*
G02*
X36924000Y-146548500I0J-200000D01*
G01*
X36924000Y-146948500D01*
G75*
G02*
X36724000Y-147148500I-200000J0D01*
G01*
X36174000Y-147148500D01*
G75*
G02*
X35974000Y-146948500I0J200000D01*
G01*
X35974000Y-146548500D01*
G75*
G02*
X36174000Y-146348500I200000J0D01*
G01*
G37*
G36*
G01*
X42185000Y-146641500D02*
X41635000Y-146641500D01*
G75*
G02*
X41435000Y-146441500I0J200000D01*
G01*
X41435000Y-146041500D01*
G75*
G02*
X41635000Y-145841500I200000J0D01*
G01*
X42185000Y-145841500D01*
G75*
G02*
X42385000Y-146041500I0J-200000D01*
G01*
X42385000Y-146441500D01*
G75*
G02*
X42185000Y-146641500I-200000J0D01*
G01*
G37*
G36*
G01*
X42185000Y-148291500D02*
X41635000Y-148291500D01*
G75*
G02*
X41435000Y-148091500I0J200000D01*
G01*
X41435000Y-147691500D01*
G75*
G02*
X41635000Y-147491500I200000J0D01*
G01*
X42185000Y-147491500D01*
G75*
G02*
X42385000Y-147691500I0J-200000D01*
G01*
X42385000Y-148091500D01*
G75*
G02*
X42185000Y-148291500I-200000J0D01*
G01*
G37*
G36*
G01*
X55541500Y-121900000D02*
X56091500Y-121900000D01*
G75*
G02*
X56291500Y-122100000I0J-200000D01*
G01*
X56291500Y-122500000D01*
G75*
G02*
X56091500Y-122700000I-200000J0D01*
G01*
X55541500Y-122700000D01*
G75*
G02*
X55341500Y-122500000I0J200000D01*
G01*
X55341500Y-122100000D01*
G75*
G02*
X55541500Y-121900000I200000J0D01*
G01*
G37*
G36*
G01*
X55541500Y-120250000D02*
X56091500Y-120250000D01*
G75*
G02*
X56291500Y-120450000I0J-200000D01*
G01*
X56291500Y-120850000D01*
G75*
G02*
X56091500Y-121050000I-200000J0D01*
G01*
X55541500Y-121050000D01*
G75*
G02*
X55341500Y-120850000I0J200000D01*
G01*
X55341500Y-120450000D01*
G75*
G02*
X55541500Y-120250000I200000J0D01*
G01*
G37*
G36*
G01*
X57192500Y-121138000D02*
X57742500Y-121138000D01*
G75*
G02*
X57942500Y-121338000I0J-200000D01*
G01*
X57942500Y-121738000D01*
G75*
G02*
X57742500Y-121938000I-200000J0D01*
G01*
X57192500Y-121938000D01*
G75*
G02*
X56992500Y-121738000I0J200000D01*
G01*
X56992500Y-121338000D01*
G75*
G02*
X57192500Y-121138000I200000J0D01*
G01*
G37*
G36*
G01*
X57192500Y-119488000D02*
X57742500Y-119488000D01*
G75*
G02*
X57942500Y-119688000I0J-200000D01*
G01*
X57942500Y-120088000D01*
G75*
G02*
X57742500Y-120288000I-200000J0D01*
G01*
X57192500Y-120288000D01*
G75*
G02*
X56992500Y-120088000I0J200000D01*
G01*
X56992500Y-119688000D01*
G75*
G02*
X57192500Y-119488000I200000J0D01*
G01*
G37*
D19*
X109061000Y-140210500D03*
X107061000Y-141160500D03*
X107061000Y-139260500D03*
X109886500Y-155704500D03*
X107886500Y-156654500D03*
X107886500Y-154754500D03*
X104489000Y-122235000D03*
X102489000Y-123185000D03*
X102489000Y-121285000D03*
X104489000Y-129664500D03*
X102489000Y-130614500D03*
X102489000Y-128714500D03*
D20*
X49532500Y-86899500D03*
X48582500Y-84899500D03*
X50482500Y-84899500D03*
D19*
X40227000Y-154239000D03*
X38227000Y-155189000D03*
X38227000Y-153289000D03*
X40370000Y-146240500D03*
X38370000Y-147190500D03*
X38370000Y-145290500D03*
G36*
G01*
X73803500Y-131592500D02*
X74278500Y-131592500D01*
G75*
G02*
X74516000Y-131830000I0J-237500D01*
G01*
X74516000Y-132330000D01*
G75*
G02*
X74278500Y-132567500I-237500J0D01*
G01*
X73803500Y-132567500D01*
G75*
G02*
X73566000Y-132330000I0J237500D01*
G01*
X73566000Y-131830000D01*
G75*
G02*
X73803500Y-131592500I237500J0D01*
G01*
G37*
G36*
G01*
X73803500Y-129767500D02*
X74278500Y-129767500D01*
G75*
G02*
X74516000Y-130005000I0J-237500D01*
G01*
X74516000Y-130505000D01*
G75*
G02*
X74278500Y-130742500I-237500J0D01*
G01*
X73803500Y-130742500D01*
G75*
G02*
X73566000Y-130505000I0J237500D01*
G01*
X73566000Y-130005000D01*
G75*
G02*
X73803500Y-129767500I237500J0D01*
G01*
G37*
X107220000Y-110546596D03*
X109220000Y-109596596D03*
X109220000Y-111496596D03*
X109220000Y-106868000D03*
X107220000Y-107818000D03*
X107220000Y-105918000D03*
D21*
X94932500Y-157670500D03*
X94932500Y-159070500D03*
X106870500Y-78487500D03*
X106870500Y-77087500D03*
D22*
X97156500Y-77279500D03*
X95756500Y-77279500D03*
D23*
X53656500Y-82931000D03*
X50356500Y-82931000D03*
X56768000Y-80518000D03*
X53468000Y-80518000D03*
G36*
G01*
X103641500Y-166929750D02*
X103641500Y-167842250D01*
G75*
G02*
X103397750Y-168086000I-243750J0D01*
G01*
X102910250Y-168086000D01*
G75*
G02*
X102666500Y-167842250I0J243750D01*
G01*
X102666500Y-166929750D01*
G75*
G02*
X102910250Y-166686000I243750J0D01*
G01*
X103397750Y-166686000D01*
G75*
G02*
X103641500Y-166929750I0J-243750D01*
G01*
G37*
G36*
G01*
X105516500Y-166929750D02*
X105516500Y-167842250D01*
G75*
G02*
X105272750Y-168086000I-243750J0D01*
G01*
X104785250Y-168086000D01*
G75*
G02*
X104541500Y-167842250I0J243750D01*
G01*
X104541500Y-166929750D01*
G75*
G02*
X104785250Y-166686000I243750J0D01*
G01*
X105272750Y-166686000D01*
G75*
G02*
X105516500Y-166929750I0J-243750D01*
G01*
G37*
G36*
G01*
X103641500Y-164643750D02*
X103641500Y-165556250D01*
G75*
G02*
X103397750Y-165800000I-243750J0D01*
G01*
X102910250Y-165800000D01*
G75*
G02*
X102666500Y-165556250I0J243750D01*
G01*
X102666500Y-164643750D01*
G75*
G02*
X102910250Y-164400000I243750J0D01*
G01*
X103397750Y-164400000D01*
G75*
G02*
X103641500Y-164643750I0J-243750D01*
G01*
G37*
G36*
G01*
X105516500Y-164643750D02*
X105516500Y-165556250D01*
G75*
G02*
X105272750Y-165800000I-243750J0D01*
G01*
X104785250Y-165800000D01*
G75*
G02*
X104541500Y-165556250I0J243750D01*
G01*
X104541500Y-164643750D01*
G75*
G02*
X104785250Y-164400000I243750J0D01*
G01*
X105272750Y-164400000D01*
G75*
G02*
X105516500Y-164643750I0J-243750D01*
G01*
G37*
G36*
G01*
X103626500Y-162357750D02*
X103626500Y-163270250D01*
G75*
G02*
X103382750Y-163514000I-243750J0D01*
G01*
X102895250Y-163514000D01*
G75*
G02*
X102651500Y-163270250I0J243750D01*
G01*
X102651500Y-162357750D01*
G75*
G02*
X102895250Y-162114000I243750J0D01*
G01*
X103382750Y-162114000D01*
G75*
G02*
X103626500Y-162357750I0J-243750D01*
G01*
G37*
G36*
G01*
X105501500Y-162357750D02*
X105501500Y-163270250D01*
G75*
G02*
X105257750Y-163514000I-243750J0D01*
G01*
X104770250Y-163514000D01*
G75*
G02*
X104526500Y-163270250I0J243750D01*
G01*
X104526500Y-162357750D01*
G75*
G02*
X104770250Y-162114000I243750J0D01*
G01*
X105257750Y-162114000D01*
G75*
G02*
X105501500Y-162357750I0J-243750D01*
G01*
G37*
D24*
X36258500Y-149989000D03*
X36258500Y-153289000D03*
X36449000Y-141987000D03*
X36449000Y-145287000D03*
G36*
G01*
X105938500Y-159127000D02*
X105938500Y-158627000D01*
G75*
G02*
X106163500Y-158402000I225000J0D01*
G01*
X106613500Y-158402000D01*
G75*
G02*
X106838500Y-158627000I0J-225000D01*
G01*
X106838500Y-159127000D01*
G75*
G02*
X106613500Y-159352000I-225000J0D01*
G01*
X106163500Y-159352000D01*
G75*
G02*
X105938500Y-159127000I0J225000D01*
G01*
G37*
G36*
G01*
X104388500Y-159127000D02*
X104388500Y-158627000D01*
G75*
G02*
X104613500Y-158402000I225000J0D01*
G01*
X105063500Y-158402000D01*
G75*
G02*
X105288500Y-158627000I0J-225000D01*
G01*
X105288500Y-159127000D01*
G75*
G02*
X105063500Y-159352000I-225000J0D01*
G01*
X104613500Y-159352000D01*
G75*
G02*
X104388500Y-159127000I0J225000D01*
G01*
G37*
G36*
G01*
X61228272Y-93674163D02*
X61728272Y-93674163D01*
G75*
G02*
X61953272Y-93899163I0J-225000D01*
G01*
X61953272Y-94349163D01*
G75*
G02*
X61728272Y-94574163I-225000J0D01*
G01*
X61228272Y-94574163D01*
G75*
G02*
X61003272Y-94349163I0J225000D01*
G01*
X61003272Y-93899163D01*
G75*
G02*
X61228272Y-93674163I225000J0D01*
G01*
G37*
G36*
G01*
X61228272Y-92124163D02*
X61728272Y-92124163D01*
G75*
G02*
X61953272Y-92349163I0J-225000D01*
G01*
X61953272Y-92799163D01*
G75*
G02*
X61728272Y-93024163I-225000J0D01*
G01*
X61228272Y-93024163D01*
G75*
G02*
X61003272Y-92799163I0J225000D01*
G01*
X61003272Y-92349163D01*
G75*
G02*
X61228272Y-92124163I225000J0D01*
G01*
G37*
G36*
G01*
X107565000Y-102713000D02*
X107065000Y-102713000D01*
G75*
G02*
X106840000Y-102488000I0J225000D01*
G01*
X106840000Y-102038000D01*
G75*
G02*
X107065000Y-101813000I225000J0D01*
G01*
X107565000Y-101813000D01*
G75*
G02*
X107790000Y-102038000I0J-225000D01*
G01*
X107790000Y-102488000D01*
G75*
G02*
X107565000Y-102713000I-225000J0D01*
G01*
G37*
G36*
G01*
X107565000Y-104263000D02*
X107065000Y-104263000D01*
G75*
G02*
X106840000Y-104038000I0J225000D01*
G01*
X106840000Y-103588000D01*
G75*
G02*
X107065000Y-103363000I225000J0D01*
G01*
X107565000Y-103363000D01*
G75*
G02*
X107790000Y-103588000I0J-225000D01*
G01*
X107790000Y-104038000D01*
G75*
G02*
X107565000Y-104263000I-225000J0D01*
G01*
G37*
G36*
G01*
X105885000Y-102613000D02*
X104935000Y-102613000D01*
G75*
G02*
X104685000Y-102363000I0J250000D01*
G01*
X104685000Y-101863000D01*
G75*
G02*
X104935000Y-101613000I250000J0D01*
G01*
X105885000Y-101613000D01*
G75*
G02*
X106135000Y-101863000I0J-250000D01*
G01*
X106135000Y-102363000D01*
G75*
G02*
X105885000Y-102613000I-250000J0D01*
G01*
G37*
G36*
G01*
X105885000Y-104513000D02*
X104935000Y-104513000D01*
G75*
G02*
X104685000Y-104263000I0J250000D01*
G01*
X104685000Y-103763000D01*
G75*
G02*
X104935000Y-103513000I250000J0D01*
G01*
X105885000Y-103513000D01*
G75*
G02*
X106135000Y-103763000I0J-250000D01*
G01*
X106135000Y-104263000D01*
G75*
G02*
X105885000Y-104513000I-250000J0D01*
G01*
G37*
G36*
G01*
X108644500Y-92131000D02*
X108144500Y-92131000D01*
G75*
G02*
X107919500Y-91906000I0J225000D01*
G01*
X107919500Y-91456000D01*
G75*
G02*
X108144500Y-91231000I225000J0D01*
G01*
X108644500Y-91231000D01*
G75*
G02*
X108869500Y-91456000I0J-225000D01*
G01*
X108869500Y-91906000D01*
G75*
G02*
X108644500Y-92131000I-225000J0D01*
G01*
G37*
G36*
G01*
X108644500Y-93681000D02*
X108144500Y-93681000D01*
G75*
G02*
X107919500Y-93456000I0J225000D01*
G01*
X107919500Y-93006000D01*
G75*
G02*
X108144500Y-92781000I225000J0D01*
G01*
X108644500Y-92781000D01*
G75*
G02*
X108869500Y-93006000I0J-225000D01*
G01*
X108869500Y-93456000D01*
G75*
G02*
X108644500Y-93681000I-225000J0D01*
G01*
G37*
G36*
G01*
X105938500Y-154174000D02*
X105938500Y-153674000D01*
G75*
G02*
X106163500Y-153449000I225000J0D01*
G01*
X106613500Y-153449000D01*
G75*
G02*
X106838500Y-153674000I0J-225000D01*
G01*
X106838500Y-154174000D01*
G75*
G02*
X106613500Y-154399000I-225000J0D01*
G01*
X106163500Y-154399000D01*
G75*
G02*
X105938500Y-154174000I0J225000D01*
G01*
G37*
G36*
G01*
X104388500Y-154174000D02*
X104388500Y-153674000D01*
G75*
G02*
X104613500Y-153449000I225000J0D01*
G01*
X105063500Y-153449000D01*
G75*
G02*
X105288500Y-153674000I0J-225000D01*
G01*
X105288500Y-154174000D01*
G75*
G02*
X105063500Y-154399000I-225000J0D01*
G01*
X104613500Y-154399000D01*
G75*
G02*
X104388500Y-154174000I0J225000D01*
G01*
G37*
G36*
G01*
X99420500Y-90936000D02*
X99420500Y-91436000D01*
G75*
G02*
X99195500Y-91661000I-225000J0D01*
G01*
X98745500Y-91661000D01*
G75*
G02*
X98520500Y-91436000I0J225000D01*
G01*
X98520500Y-90936000D01*
G75*
G02*
X98745500Y-90711000I225000J0D01*
G01*
X99195500Y-90711000D01*
G75*
G02*
X99420500Y-90936000I0J-225000D01*
G01*
G37*
G36*
G01*
X100970500Y-90936000D02*
X100970500Y-91436000D01*
G75*
G02*
X100745500Y-91661000I-225000J0D01*
G01*
X100295500Y-91661000D01*
G75*
G02*
X100070500Y-91436000I0J225000D01*
G01*
X100070500Y-90936000D01*
G75*
G02*
X100295500Y-90711000I225000J0D01*
G01*
X100745500Y-90711000D01*
G75*
G02*
X100970500Y-90936000I0J-225000D01*
G01*
G37*
G36*
G01*
X97095500Y-99652000D02*
X97595500Y-99652000D01*
G75*
G02*
X97820500Y-99877000I0J-225000D01*
G01*
X97820500Y-100327000D01*
G75*
G02*
X97595500Y-100552000I-225000J0D01*
G01*
X97095500Y-100552000D01*
G75*
G02*
X96870500Y-100327000I0J225000D01*
G01*
X96870500Y-99877000D01*
G75*
G02*
X97095500Y-99652000I225000J0D01*
G01*
G37*
G36*
G01*
X97095500Y-98102000D02*
X97595500Y-98102000D01*
G75*
G02*
X97820500Y-98327000I0J-225000D01*
G01*
X97820500Y-98777000D01*
G75*
G02*
X97595500Y-99002000I-225000J0D01*
G01*
X97095500Y-99002000D01*
G75*
G02*
X96870500Y-98777000I0J225000D01*
G01*
X96870500Y-98327000D01*
G75*
G02*
X97095500Y-98102000I225000J0D01*
G01*
G37*
G36*
G01*
X97095500Y-96604000D02*
X97595500Y-96604000D01*
G75*
G02*
X97820500Y-96829000I0J-225000D01*
G01*
X97820500Y-97279000D01*
G75*
G02*
X97595500Y-97504000I-225000J0D01*
G01*
X97095500Y-97504000D01*
G75*
G02*
X96870500Y-97279000I0J225000D01*
G01*
X96870500Y-96829000D01*
G75*
G02*
X97095500Y-96604000I225000J0D01*
G01*
G37*
G36*
G01*
X97095500Y-95054000D02*
X97595500Y-95054000D01*
G75*
G02*
X97820500Y-95279000I0J-225000D01*
G01*
X97820500Y-95729000D01*
G75*
G02*
X97595500Y-95954000I-225000J0D01*
G01*
X97095500Y-95954000D01*
G75*
G02*
X96870500Y-95729000I0J225000D01*
G01*
X96870500Y-95279000D01*
G75*
G02*
X97095500Y-95054000I225000J0D01*
G01*
G37*
G36*
G01*
X97095500Y-93556000D02*
X97595500Y-93556000D01*
G75*
G02*
X97820500Y-93781000I0J-225000D01*
G01*
X97820500Y-94231000D01*
G75*
G02*
X97595500Y-94456000I-225000J0D01*
G01*
X97095500Y-94456000D01*
G75*
G02*
X96870500Y-94231000I0J225000D01*
G01*
X96870500Y-93781000D01*
G75*
G02*
X97095500Y-93556000I225000J0D01*
G01*
G37*
G36*
G01*
X97095500Y-92006000D02*
X97595500Y-92006000D01*
G75*
G02*
X97820500Y-92231000I0J-225000D01*
G01*
X97820500Y-92681000D01*
G75*
G02*
X97595500Y-92906000I-225000J0D01*
G01*
X97095500Y-92906000D01*
G75*
G02*
X96870500Y-92681000I0J225000D01*
G01*
X96870500Y-92231000D01*
G75*
G02*
X97095500Y-92006000I225000J0D01*
G01*
G37*
G36*
G01*
X73910000Y-109263000D02*
X73410000Y-109263000D01*
G75*
G02*
X73185000Y-109038000I0J225000D01*
G01*
X73185000Y-108588000D01*
G75*
G02*
X73410000Y-108363000I225000J0D01*
G01*
X73910000Y-108363000D01*
G75*
G02*
X74135000Y-108588000I0J-225000D01*
G01*
X74135000Y-109038000D01*
G75*
G02*
X73910000Y-109263000I-225000J0D01*
G01*
G37*
G36*
G01*
X73910000Y-110813000D02*
X73410000Y-110813000D01*
G75*
G02*
X73185000Y-110588000I0J225000D01*
G01*
X73185000Y-110138000D01*
G75*
G02*
X73410000Y-109913000I225000J0D01*
G01*
X73910000Y-109913000D01*
G75*
G02*
X74135000Y-110138000I0J-225000D01*
G01*
X74135000Y-110588000D01*
G75*
G02*
X73910000Y-110813000I-225000J0D01*
G01*
G37*
G36*
G01*
X67607000Y-108652500D02*
X67607000Y-109152500D01*
G75*
G02*
X67382000Y-109377500I-225000J0D01*
G01*
X66932000Y-109377500D01*
G75*
G02*
X66707000Y-109152500I0J225000D01*
G01*
X66707000Y-108652500D01*
G75*
G02*
X66932000Y-108427500I225000J0D01*
G01*
X67382000Y-108427500D01*
G75*
G02*
X67607000Y-108652500I0J-225000D01*
G01*
G37*
G36*
G01*
X69157000Y-108652500D02*
X69157000Y-109152500D01*
G75*
G02*
X68932000Y-109377500I-225000J0D01*
G01*
X68482000Y-109377500D01*
G75*
G02*
X68257000Y-109152500I0J225000D01*
G01*
X68257000Y-108652500D01*
G75*
G02*
X68482000Y-108427500I225000J0D01*
G01*
X68932000Y-108427500D01*
G75*
G02*
X69157000Y-108652500I0J-225000D01*
G01*
G37*
G36*
G01*
X61257000Y-115066000D02*
X61257000Y-115566000D01*
G75*
G02*
X61032000Y-115791000I-225000J0D01*
G01*
X60582000Y-115791000D01*
G75*
G02*
X60357000Y-115566000I0J225000D01*
G01*
X60357000Y-115066000D01*
G75*
G02*
X60582000Y-114841000I225000J0D01*
G01*
X61032000Y-114841000D01*
G75*
G02*
X61257000Y-115066000I0J-225000D01*
G01*
G37*
G36*
G01*
X62807000Y-115066000D02*
X62807000Y-115566000D01*
G75*
G02*
X62582000Y-115791000I-225000J0D01*
G01*
X62132000Y-115791000D01*
G75*
G02*
X61907000Y-115566000I0J225000D01*
G01*
X61907000Y-115066000D01*
G75*
G02*
X62132000Y-114841000I225000J0D01*
G01*
X62582000Y-114841000D01*
G75*
G02*
X62807000Y-115066000I0J-225000D01*
G01*
G37*
G36*
G01*
X69706500Y-104921000D02*
X69231500Y-104921000D01*
G75*
G02*
X68994000Y-104683500I0J237500D01*
G01*
X68994000Y-104083500D01*
G75*
G02*
X69231500Y-103846000I237500J0D01*
G01*
X69706500Y-103846000D01*
G75*
G02*
X69944000Y-104083500I0J-237500D01*
G01*
X69944000Y-104683500D01*
G75*
G02*
X69706500Y-104921000I-237500J0D01*
G01*
G37*
G36*
G01*
X69706500Y-106646000D02*
X69231500Y-106646000D01*
G75*
G02*
X68994000Y-106408500I0J237500D01*
G01*
X68994000Y-105808500D01*
G75*
G02*
X69231500Y-105571000I237500J0D01*
G01*
X69706500Y-105571000D01*
G75*
G02*
X69944000Y-105808500I0J-237500D01*
G01*
X69944000Y-106408500D01*
G75*
G02*
X69706500Y-106646000I-237500J0D01*
G01*
G37*
G36*
G01*
X75073500Y-105581500D02*
X75548500Y-105581500D01*
G75*
G02*
X75786000Y-105819000I0J-237500D01*
G01*
X75786000Y-106419000D01*
G75*
G02*
X75548500Y-106656500I-237500J0D01*
G01*
X75073500Y-106656500D01*
G75*
G02*
X74836000Y-106419000I0J237500D01*
G01*
X74836000Y-105819000D01*
G75*
G02*
X75073500Y-105581500I237500J0D01*
G01*
G37*
G36*
G01*
X75073500Y-103856500D02*
X75548500Y-103856500D01*
G75*
G02*
X75786000Y-104094000I0J-237500D01*
G01*
X75786000Y-104694000D01*
G75*
G02*
X75548500Y-104931500I-237500J0D01*
G01*
X75073500Y-104931500D01*
G75*
G02*
X74836000Y-104694000I0J237500D01*
G01*
X74836000Y-104094000D01*
G75*
G02*
X75073500Y-103856500I237500J0D01*
G01*
G37*
G36*
G01*
X62277000Y-104921000D02*
X61802000Y-104921000D01*
G75*
G02*
X61564500Y-104683500I0J237500D01*
G01*
X61564500Y-104083500D01*
G75*
G02*
X61802000Y-103846000I237500J0D01*
G01*
X62277000Y-103846000D01*
G75*
G02*
X62514500Y-104083500I0J-237500D01*
G01*
X62514500Y-104683500D01*
G75*
G02*
X62277000Y-104921000I-237500J0D01*
G01*
G37*
G36*
G01*
X62277000Y-106646000D02*
X61802000Y-106646000D01*
G75*
G02*
X61564500Y-106408500I0J237500D01*
G01*
X61564500Y-105808500D01*
G75*
G02*
X61802000Y-105571000I237500J0D01*
G01*
X62277000Y-105571000D01*
G75*
G02*
X62514500Y-105808500I0J-237500D01*
G01*
X62514500Y-106408500D01*
G75*
G02*
X62277000Y-106646000I-237500J0D01*
G01*
G37*
G36*
G01*
X67644000Y-105571000D02*
X68119000Y-105571000D01*
G75*
G02*
X68356500Y-105808500I0J-237500D01*
G01*
X68356500Y-106408500D01*
G75*
G02*
X68119000Y-106646000I-237500J0D01*
G01*
X67644000Y-106646000D01*
G75*
G02*
X67406500Y-106408500I0J237500D01*
G01*
X67406500Y-105808500D01*
G75*
G02*
X67644000Y-105571000I237500J0D01*
G01*
G37*
G36*
G01*
X67644000Y-103846000D02*
X68119000Y-103846000D01*
G75*
G02*
X68356500Y-104083500I0J-237500D01*
G01*
X68356500Y-104683500D01*
G75*
G02*
X68119000Y-104921000I-237500J0D01*
G01*
X67644000Y-104921000D01*
G75*
G02*
X67406500Y-104683500I0J237500D01*
G01*
X67406500Y-104083500D01*
G75*
G02*
X67644000Y-103846000I237500J0D01*
G01*
G37*
G36*
G01*
X66490000Y-110240000D02*
X66490000Y-110740000D01*
G75*
G02*
X66265000Y-110965000I-225000J0D01*
G01*
X65815000Y-110965000D01*
G75*
G02*
X65590000Y-110740000I0J225000D01*
G01*
X65590000Y-110240000D01*
G75*
G02*
X65815000Y-110015000I225000J0D01*
G01*
X66265000Y-110015000D01*
G75*
G02*
X66490000Y-110240000I0J-225000D01*
G01*
G37*
G36*
G01*
X68040000Y-110240000D02*
X68040000Y-110740000D01*
G75*
G02*
X67815000Y-110965000I-225000J0D01*
G01*
X67365000Y-110965000D01*
G75*
G02*
X67140000Y-110740000I0J225000D01*
G01*
X67140000Y-110240000D01*
G75*
G02*
X67365000Y-110015000I225000J0D01*
G01*
X67815000Y-110015000D01*
G75*
G02*
X68040000Y-110240000I0J-225000D01*
G01*
G37*
G36*
G01*
X62170500Y-123121000D02*
X62670500Y-123121000D01*
G75*
G02*
X62895500Y-123346000I0J-225000D01*
G01*
X62895500Y-123796000D01*
G75*
G02*
X62670500Y-124021000I-225000J0D01*
G01*
X62170500Y-124021000D01*
G75*
G02*
X61945500Y-123796000I0J225000D01*
G01*
X61945500Y-123346000D01*
G75*
G02*
X62170500Y-123121000I225000J0D01*
G01*
G37*
G36*
G01*
X62170500Y-121571000D02*
X62670500Y-121571000D01*
G75*
G02*
X62895500Y-121796000I0J-225000D01*
G01*
X62895500Y-122246000D01*
G75*
G02*
X62670500Y-122471000I-225000J0D01*
G01*
X62170500Y-122471000D01*
G75*
G02*
X61945500Y-122246000I0J225000D01*
G01*
X61945500Y-121796000D01*
G75*
G02*
X62170500Y-121571000I225000J0D01*
G01*
G37*
G36*
G01*
X78811000Y-114550000D02*
X78811000Y-114050000D01*
G75*
G02*
X79036000Y-113825000I225000J0D01*
G01*
X79486000Y-113825000D01*
G75*
G02*
X79711000Y-114050000I0J-225000D01*
G01*
X79711000Y-114550000D01*
G75*
G02*
X79486000Y-114775000I-225000J0D01*
G01*
X79036000Y-114775000D01*
G75*
G02*
X78811000Y-114550000I0J225000D01*
G01*
G37*
G36*
G01*
X77261000Y-114550000D02*
X77261000Y-114050000D01*
G75*
G02*
X77486000Y-113825000I225000J0D01*
G01*
X77936000Y-113825000D01*
G75*
G02*
X78161000Y-114050000I0J-225000D01*
G01*
X78161000Y-114550000D01*
G75*
G02*
X77936000Y-114775000I-225000J0D01*
G01*
X77486000Y-114775000D01*
G75*
G02*
X77261000Y-114550000I0J225000D01*
G01*
G37*
G36*
G01*
X74887000Y-126488000D02*
X74887000Y-125988000D01*
G75*
G02*
X75112000Y-125763000I225000J0D01*
G01*
X75562000Y-125763000D01*
G75*
G02*
X75787000Y-125988000I0J-225000D01*
G01*
X75787000Y-126488000D01*
G75*
G02*
X75562000Y-126713000I-225000J0D01*
G01*
X75112000Y-126713000D01*
G75*
G02*
X74887000Y-126488000I0J225000D01*
G01*
G37*
G36*
G01*
X73337000Y-126488000D02*
X73337000Y-125988000D01*
G75*
G02*
X73562000Y-125763000I225000J0D01*
G01*
X74012000Y-125763000D01*
G75*
G02*
X74237000Y-125988000I0J-225000D01*
G01*
X74237000Y-126488000D01*
G75*
G02*
X74012000Y-126713000I-225000J0D01*
G01*
X73562000Y-126713000D01*
G75*
G02*
X73337000Y-126488000I0J225000D01*
G01*
G37*
G36*
G01*
X76503500Y-128920001D02*
X76503500Y-127619999D01*
G75*
G02*
X76753499Y-127370000I249999J0D01*
G01*
X77578501Y-127370000D01*
G75*
G02*
X77828500Y-127619999I0J-249999D01*
G01*
X77828500Y-128920001D01*
G75*
G02*
X77578501Y-129170000I-249999J0D01*
G01*
X76753499Y-129170000D01*
G75*
G02*
X76503500Y-128920001I0J249999D01*
G01*
G37*
G36*
G01*
X73378500Y-128920001D02*
X73378500Y-127619999D01*
G75*
G02*
X73628499Y-127370000I249999J0D01*
G01*
X74453501Y-127370000D01*
G75*
G02*
X74703500Y-127619999I0J-249999D01*
G01*
X74703500Y-128920001D01*
G75*
G02*
X74453501Y-129170000I-249999J0D01*
G01*
X73628499Y-129170000D01*
G75*
G02*
X73378500Y-128920001I0J249999D01*
G01*
G37*
G36*
G01*
X104707500Y-118089500D02*
X104207500Y-118089500D01*
G75*
G02*
X103982500Y-117864500I0J225000D01*
G01*
X103982500Y-117414500D01*
G75*
G02*
X104207500Y-117189500I225000J0D01*
G01*
X104707500Y-117189500D01*
G75*
G02*
X104932500Y-117414500I0J-225000D01*
G01*
X104932500Y-117864500D01*
G75*
G02*
X104707500Y-118089500I-225000J0D01*
G01*
G37*
G36*
G01*
X104707500Y-119639500D02*
X104207500Y-119639500D01*
G75*
G02*
X103982500Y-119414500I0J225000D01*
G01*
X103982500Y-118964500D01*
G75*
G02*
X104207500Y-118739500I225000J0D01*
G01*
X104707500Y-118739500D01*
G75*
G02*
X104932500Y-118964500I0J-225000D01*
G01*
X104932500Y-119414500D01*
G75*
G02*
X104707500Y-119639500I-225000J0D01*
G01*
G37*
G36*
G01*
X99564000Y-120248500D02*
X99064000Y-120248500D01*
G75*
G02*
X98839000Y-120023500I0J225000D01*
G01*
X98839000Y-119573500D01*
G75*
G02*
X99064000Y-119348500I225000J0D01*
G01*
X99564000Y-119348500D01*
G75*
G02*
X99789000Y-119573500I0J-225000D01*
G01*
X99789000Y-120023500D01*
G75*
G02*
X99564000Y-120248500I-225000J0D01*
G01*
G37*
G36*
G01*
X99564000Y-121798500D02*
X99064000Y-121798500D01*
G75*
G02*
X98839000Y-121573500I0J225000D01*
G01*
X98839000Y-121123500D01*
G75*
G02*
X99064000Y-120898500I225000J0D01*
G01*
X99564000Y-120898500D01*
G75*
G02*
X99789000Y-121123500I0J-225000D01*
G01*
X99789000Y-121573500D01*
G75*
G02*
X99564000Y-121798500I-225000J0D01*
G01*
G37*
G36*
G01*
X103484500Y-77283500D02*
X103484500Y-77783500D01*
G75*
G02*
X103259500Y-78008500I-225000J0D01*
G01*
X102809500Y-78008500D01*
G75*
G02*
X102584500Y-77783500I0J225000D01*
G01*
X102584500Y-77283500D01*
G75*
G02*
X102809500Y-77058500I225000J0D01*
G01*
X103259500Y-77058500D01*
G75*
G02*
X103484500Y-77283500I0J-225000D01*
G01*
G37*
G36*
G01*
X105034500Y-77283500D02*
X105034500Y-77783500D01*
G75*
G02*
X104809500Y-78008500I-225000J0D01*
G01*
X104359500Y-78008500D01*
G75*
G02*
X104134500Y-77783500I0J225000D01*
G01*
X104134500Y-77283500D01*
G75*
G02*
X104359500Y-77058500I225000J0D01*
G01*
X104809500Y-77058500D01*
G75*
G02*
X105034500Y-77283500I0J-225000D01*
G01*
G37*
G36*
G01*
X53233500Y-85213000D02*
X53233500Y-84713000D01*
G75*
G02*
X53458500Y-84488000I225000J0D01*
G01*
X53908500Y-84488000D01*
G75*
G02*
X54133500Y-84713000I0J-225000D01*
G01*
X54133500Y-85213000D01*
G75*
G02*
X53908500Y-85438000I-225000J0D01*
G01*
X53458500Y-85438000D01*
G75*
G02*
X53233500Y-85213000I0J225000D01*
G01*
G37*
G36*
G01*
X51683500Y-85213000D02*
X51683500Y-84713000D01*
G75*
G02*
X51908500Y-84488000I225000J0D01*
G01*
X52358500Y-84488000D01*
G75*
G02*
X52583500Y-84713000I0J-225000D01*
G01*
X52583500Y-85213000D01*
G75*
G02*
X52358500Y-85438000I-225000J0D01*
G01*
X51908500Y-85438000D01*
G75*
G02*
X51683500Y-85213000I0J225000D01*
G01*
G37*
G36*
G01*
X62869000Y-133688000D02*
X63369000Y-133688000D01*
G75*
G02*
X63594000Y-133913000I0J-225000D01*
G01*
X63594000Y-134363000D01*
G75*
G02*
X63369000Y-134588000I-225000J0D01*
G01*
X62869000Y-134588000D01*
G75*
G02*
X62644000Y-134363000I0J225000D01*
G01*
X62644000Y-133913000D01*
G75*
G02*
X62869000Y-133688000I225000J0D01*
G01*
G37*
G36*
G01*
X62869000Y-132138000D02*
X63369000Y-132138000D01*
G75*
G02*
X63594000Y-132363000I0J-225000D01*
G01*
X63594000Y-132813000D01*
G75*
G02*
X63369000Y-133038000I-225000J0D01*
G01*
X62869000Y-133038000D01*
G75*
G02*
X62644000Y-132813000I0J225000D01*
G01*
X62644000Y-132363000D01*
G75*
G02*
X62869000Y-132138000I225000J0D01*
G01*
G37*
G36*
G01*
X66226500Y-147490000D02*
X65726500Y-147490000D01*
G75*
G02*
X65501500Y-147265000I0J225000D01*
G01*
X65501500Y-146815000D01*
G75*
G02*
X65726500Y-146590000I225000J0D01*
G01*
X66226500Y-146590000D01*
G75*
G02*
X66451500Y-146815000I0J-225000D01*
G01*
X66451500Y-147265000D01*
G75*
G02*
X66226500Y-147490000I-225000J0D01*
G01*
G37*
G36*
G01*
X66226500Y-149040000D02*
X65726500Y-149040000D01*
G75*
G02*
X65501500Y-148815000I0J225000D01*
G01*
X65501500Y-148365000D01*
G75*
G02*
X65726500Y-148140000I225000J0D01*
G01*
X66226500Y-148140000D01*
G75*
G02*
X66451500Y-148365000I0J-225000D01*
G01*
X66451500Y-148815000D01*
G75*
G02*
X66226500Y-149040000I-225000J0D01*
G01*
G37*
G36*
G01*
X85919500Y-141853500D02*
X86419500Y-141853500D01*
G75*
G02*
X86644500Y-142078500I0J-225000D01*
G01*
X86644500Y-142528500D01*
G75*
G02*
X86419500Y-142753500I-225000J0D01*
G01*
X85919500Y-142753500D01*
G75*
G02*
X85694500Y-142528500I0J225000D01*
G01*
X85694500Y-142078500D01*
G75*
G02*
X85919500Y-141853500I225000J0D01*
G01*
G37*
G36*
G01*
X85919500Y-140303500D02*
X86419500Y-140303500D01*
G75*
G02*
X86644500Y-140528500I0J-225000D01*
G01*
X86644500Y-140978500D01*
G75*
G02*
X86419500Y-141203500I-225000J0D01*
G01*
X85919500Y-141203500D01*
G75*
G02*
X85694500Y-140978500I0J225000D01*
G01*
X85694500Y-140528500D01*
G75*
G02*
X85919500Y-140303500I225000J0D01*
G01*
G37*
G36*
G01*
X60981500Y-150652500D02*
X62081500Y-150652500D01*
G75*
G02*
X62331500Y-150902500I0J-250000D01*
G01*
X62331500Y-153902500D01*
G75*
G02*
X62081500Y-154152500I-250000J0D01*
G01*
X60981500Y-154152500D01*
G75*
G02*
X60731500Y-153902500I0J250000D01*
G01*
X60731500Y-150902500D01*
G75*
G02*
X60981500Y-150652500I250000J0D01*
G01*
G37*
G36*
G01*
X60981500Y-145252500D02*
X62081500Y-145252500D01*
G75*
G02*
X62331500Y-145502500I0J-250000D01*
G01*
X62331500Y-148502500D01*
G75*
G02*
X62081500Y-148752500I-250000J0D01*
G01*
X60981500Y-148752500D01*
G75*
G02*
X60731500Y-148502500I0J250000D01*
G01*
X60731500Y-145502500D01*
G75*
G02*
X60981500Y-145252500I250000J0D01*
G01*
G37*
G36*
G01*
X82973000Y-139381000D02*
X81873000Y-139381000D01*
G75*
G02*
X81623000Y-139131000I0J250000D01*
G01*
X81623000Y-136631000D01*
G75*
G02*
X81873000Y-136381000I250000J0D01*
G01*
X82973000Y-136381000D01*
G75*
G02*
X83223000Y-136631000I0J-250000D01*
G01*
X83223000Y-139131000D01*
G75*
G02*
X82973000Y-139381000I-250000J0D01*
G01*
G37*
G36*
G01*
X82973000Y-143781000D02*
X81873000Y-143781000D01*
G75*
G02*
X81623000Y-143531000I0J250000D01*
G01*
X81623000Y-141031000D01*
G75*
G02*
X81873000Y-140781000I250000J0D01*
G01*
X82973000Y-140781000D01*
G75*
G02*
X83223000Y-141031000I0J-250000D01*
G01*
X83223000Y-143531000D01*
G75*
G02*
X82973000Y-143781000I-250000J0D01*
G01*
G37*
G36*
G01*
X66718000Y-155642500D02*
X66718000Y-156142500D01*
G75*
G02*
X66493000Y-156367500I-225000J0D01*
G01*
X66043000Y-156367500D01*
G75*
G02*
X65818000Y-156142500I0J225000D01*
G01*
X65818000Y-155642500D01*
G75*
G02*
X66043000Y-155417500I225000J0D01*
G01*
X66493000Y-155417500D01*
G75*
G02*
X66718000Y-155642500I0J-225000D01*
G01*
G37*
G36*
G01*
X68268000Y-155642500D02*
X68268000Y-156142500D01*
G75*
G02*
X68043000Y-156367500I-225000J0D01*
G01*
X67593000Y-156367500D01*
G75*
G02*
X67368000Y-156142500I0J225000D01*
G01*
X67368000Y-155642500D01*
G75*
G02*
X67593000Y-155417500I225000J0D01*
G01*
X68043000Y-155417500D01*
G75*
G02*
X68268000Y-155642500I0J-225000D01*
G01*
G37*
G36*
G01*
X88180500Y-160125500D02*
X88180500Y-159025500D01*
G75*
G02*
X88430500Y-158775500I250000J0D01*
G01*
X90930500Y-158775500D01*
G75*
G02*
X91180500Y-159025500I0J-250000D01*
G01*
X91180500Y-160125500D01*
G75*
G02*
X90930500Y-160375500I-250000J0D01*
G01*
X88430500Y-160375500D01*
G75*
G02*
X88180500Y-160125500I0J250000D01*
G01*
G37*
G36*
G01*
X83780500Y-160125500D02*
X83780500Y-159025500D01*
G75*
G02*
X84030500Y-158775500I250000J0D01*
G01*
X86530500Y-158775500D01*
G75*
G02*
X86780500Y-159025500I0J-250000D01*
G01*
X86780500Y-160125500D01*
G75*
G02*
X86530500Y-160375500I-250000J0D01*
G01*
X84030500Y-160375500D01*
G75*
G02*
X83780500Y-160125500I0J250000D01*
G01*
G37*
G36*
G01*
X68876500Y-162411500D02*
X68876500Y-161311500D01*
G75*
G02*
X69126500Y-161061500I250000J0D01*
G01*
X71626500Y-161061500D01*
G75*
G02*
X71876500Y-161311500I0J-250000D01*
G01*
X71876500Y-162411500D01*
G75*
G02*
X71626500Y-162661500I-250000J0D01*
G01*
X69126500Y-162661500D01*
G75*
G02*
X68876500Y-162411500I0J250000D01*
G01*
G37*
G36*
G01*
X64476500Y-162411500D02*
X64476500Y-161311500D01*
G75*
G02*
X64726500Y-161061500I250000J0D01*
G01*
X67226500Y-161061500D01*
G75*
G02*
X67476500Y-161311500I0J-250000D01*
G01*
X67476500Y-162411500D01*
G75*
G02*
X67226500Y-162661500I-250000J0D01*
G01*
X64726500Y-162661500D01*
G75*
G02*
X64476500Y-162411500I0J250000D01*
G01*
G37*
G36*
G01*
X39222500Y-151324500D02*
X39222500Y-151824500D01*
G75*
G02*
X38997500Y-152049500I-225000J0D01*
G01*
X38547500Y-152049500D01*
G75*
G02*
X38322500Y-151824500I0J225000D01*
G01*
X38322500Y-151324500D01*
G75*
G02*
X38547500Y-151099500I225000J0D01*
G01*
X38997500Y-151099500D01*
G75*
G02*
X39222500Y-151324500I0J-225000D01*
G01*
G37*
G36*
G01*
X40772500Y-151324500D02*
X40772500Y-151824500D01*
G75*
G02*
X40547500Y-152049500I-225000J0D01*
G01*
X40097500Y-152049500D01*
G75*
G02*
X39872500Y-151824500I0J225000D01*
G01*
X39872500Y-151324500D01*
G75*
G02*
X40097500Y-151099500I225000J0D01*
G01*
X40547500Y-151099500D01*
G75*
G02*
X40772500Y-151324500I0J-225000D01*
G01*
G37*
G36*
G01*
X53272500Y-118788000D02*
X52772500Y-118788000D01*
G75*
G02*
X52547500Y-118563000I0J225000D01*
G01*
X52547500Y-118113000D01*
G75*
G02*
X52772500Y-117888000I225000J0D01*
G01*
X53272500Y-117888000D01*
G75*
G02*
X53497500Y-118113000I0J-225000D01*
G01*
X53497500Y-118563000D01*
G75*
G02*
X53272500Y-118788000I-225000J0D01*
G01*
G37*
G36*
G01*
X53272500Y-120338000D02*
X52772500Y-120338000D01*
G75*
G02*
X52547500Y-120113000I0J225000D01*
G01*
X52547500Y-119663000D01*
G75*
G02*
X52772500Y-119438000I225000J0D01*
G01*
X53272500Y-119438000D01*
G75*
G02*
X53497500Y-119663000I0J-225000D01*
G01*
X53497500Y-120113000D01*
G75*
G02*
X53272500Y-120338000I-225000J0D01*
G01*
G37*
G36*
G01*
X56164500Y-117726000D02*
X55214500Y-117726000D01*
G75*
G02*
X54964500Y-117476000I0J250000D01*
G01*
X54964500Y-116976000D01*
G75*
G02*
X55214500Y-116726000I250000J0D01*
G01*
X56164500Y-116726000D01*
G75*
G02*
X56414500Y-116976000I0J-250000D01*
G01*
X56414500Y-117476000D01*
G75*
G02*
X56164500Y-117726000I-250000J0D01*
G01*
G37*
G36*
G01*
X56164500Y-119626000D02*
X55214500Y-119626000D01*
G75*
G02*
X54964500Y-119376000I0J250000D01*
G01*
X54964500Y-118876000D01*
G75*
G02*
X55214500Y-118626000I250000J0D01*
G01*
X56164500Y-118626000D01*
G75*
G02*
X56414500Y-118876000I0J-250000D01*
G01*
X56414500Y-119376000D01*
G75*
G02*
X56164500Y-119626000I-250000J0D01*
G01*
G37*
M02*
