M48
; DRILL file {KiCad (5.1.9)-1} date 05/11/21 09:02:43
; FORMAT={-:-/ absolute / metric / decimal}
; #@! TF.CreationDate,2021-05-11T09:02:43+02:00
; #@! TF.GenerationSoftware,Kicad,Pcbnew,(5.1.9)-1
; #@! TF.FileFunction,Plated,1,4,PTH
FMAT,2
METRIC
T1C0.400
T2C0.500
T3C0.760
T4C0.800
T5C0.889
T6C1.000
T7C1.200
T8C3.200
%
G90
G05
T1
X22.276Y-168.631
X24.511Y-152.4
X24.575Y-142.811
X24.892Y-136.271
X25.019Y-147.13
X25.705Y-130.099
X26.086Y-95.682
X26.772Y-107.188
X27.635Y-81.788
X28.6Y-107.137
X28.677Y-95.631
X30.632Y-121.209
X31.191Y-95.555
X31.293Y-107.086
X31.801Y-81.839
X32.182Y-165.049
X32.512Y-114.452
X32.703Y-150.05
X33.401Y-136.398
X33.846Y-147.193
X34.099Y-142.875
X34.163Y-67.793
X35.306Y-148.653
X35.75Y-136.398
X35.941Y-96.418
X36.258Y-157.543
X36.373Y-77.724
X36.551Y-108.077
X37.91Y-149.542
X38.036Y-132.715
X38.125Y-63.602
X38.163Y-136.462
X38.227Y-130.619
X38.227Y-156.21
X38.798Y-150.431
X38.989Y-96.368
X39.688Y-141.986
X40.411Y-126.695
X41.846Y-122.872
X41.91Y-148.78
X41.91Y-151.575
X42.672Y-121.793
X43.243Y-103.569
X44.475Y-134.341
X44.526Y-79.502
X44.653Y-86.716
X44.704Y-174.092
X45.11Y-165.252
X45.415Y-95.758
X45.542Y-148.895
X46.99Y-73.254
X47.295Y-112.725
X48.578Y-83.757
X48.59Y-97.79
X48.717Y-93.777
X50.368Y-134.137
X51.88Y-89.471
X52.832Y-135.826
X52.895Y-114.808
X52.895Y-116.014
X52.895Y-132.588
X52.959Y-117.221
X54.292Y-119.888
X54.864Y-82.931
X54.864Y-84.963
X54.864Y-86.868
X54.864Y-106.375
X54.94Y-111.277
X55.372Y-148.209
X55.448Y-165.1
X55.55Y-64.084
X55.689Y-116.014
X55.689Y-143.637
X56.363Y-173.66
X56.642Y-154.051
X56.706Y-158.686
X56.832Y-125.285
X57.15Y-83.922
X57.467Y-123.634
X57.887Y-106.248
X58.725Y-110.947
X59.182Y-142.939
X59.309Y-132.779
X59.563Y-115.316
X60.008Y-152.463
X60.261Y-132.779
X60.515Y-135.636
X60.515Y-136.525
X60.515Y-137.414
X60.896Y-141.351
X61.15Y-133.032
X61.15Y-133.985
X61.15Y-134.874
X61.468Y-95.186
X61.544Y-70.002
X61.976Y-133.985
X61.976Y-134.874
X62.293Y-120.396
X62.42Y-125.476
X62.865Y-103.124
X63.055Y-152.4
X63.119Y-131.318
X64.897Y-110.49
X65.977Y-109.093
X65.977Y-149.733
X66.071Y-114.592
X66.167Y-120.904
X66.167Y-158.433
X66.294Y-119.634
X66.929Y-114.046
X67.373Y-121.412
X67.818Y-114.808
X67.945Y-84.811
X68.199Y-117.856
X68.516Y-113.919
X69.063Y-77.267
X69.088Y-98.958
X69.088Y-155.956
X69.215Y-110.68
X69.406Y-102.997
X69.609Y-118.097
X70.231Y-163.322
X70.294Y-160.464
X70.612Y-114.681
X70.612Y-128.27
X70.739Y-125.476
X70.993Y-121.869
X71.374Y-120.675
X71.526Y-101.244
X71.653Y-115.291
X71.78Y-118.237
X71.819Y-126.619
X72.136Y-87.706
X72.161Y-74.473
X72.619Y-165.506
X72.746Y-118.745
X72.771Y-127.344
X73.558Y-88.036
X73.66Y-107.696
X73.724Y-121.92
X73.889Y-63.703
X74.041Y-133.35
X74.168Y-114.046
X74.371Y-81.89
X75.248Y-107.569
X76.251Y-80.747
X76.302Y-175.768
X76.454Y-126.238
X76.517Y-106.108
X76.556Y-71.603
X78.105Y-118.999
X78.359Y-122.428
X78.359Y-128.27
X79.248Y-119.507
X79.947Y-124.079
X80.137Y-117.475
X80.264Y-119.253
X80.442Y-101.194
X80.62Y-114.148
X80.747Y-116.434
X80.777Y-118.243
X80.962Y-137.858
X82.042Y-115.76
X82.321Y-108.306
X82.423Y-135.509
X82.995Y-82.55
X83.109Y-97.917
X83.82Y-137.922
X84.277Y-114.097
X84.353Y-110.312
X85.344Y-70.891
X85.496Y-80.137
X85.776Y-111.379
X86.106Y-115.76
X86.169Y-139.255
X86.487Y-150.622
X86.995Y-85.09
X87.986Y-113.614
X88.138Y-126.619
X88.201Y-147.32
X88.214Y-109.169
X88.265Y-121.539
X88.519Y-105.181
X88.646Y-65.024
X88.773Y-142.43
X89.154Y-152.146
X89.281Y-115.621
X89.383Y-165.557
X89.662Y-158.052
X89.725Y-161.1
X90.627Y-110.896
X91.186Y-88.609
X91.694Y-121.666
X91.694Y-125.73
X91.821Y-159.639
X91.872Y-82.525
X92.304Y-115.113
X93.281Y-86.614
X93.408Y-152.082
X93.548Y-175.616
X93.853Y-108.077
X94.043Y-90.17
X94.234Y-102.743
X94.742Y-77.406
X94.805Y-123.253
X94.932Y-160.02
X95.123Y-109.093
X95.313Y-107.886
X95.758Y-119.177
X95.758Y-162.56
X97.536Y-64.262
X97.727Y-91.059
X97.79Y-102.87
X98.044Y-160.782
X98.108Y-130.619
X98.615Y-100.076
X98.679Y-167.386
X98.87Y-139.129
X99.136Y-115.976
X99.187Y-126.174
X99.314Y-118.618
X99.441Y-110.363
X99.695Y-85.852
X100.33Y-151.765
X100.774Y-127.762
X100.901Y-120.396
X101.155Y-147.447
X101.219Y-111.633
X101.409Y-82.995
X101.727Y-77.597
X101.727Y-80.518
X102.679Y-79.502
X102.806Y-145.225
X102.997Y-70.548
X103.06Y-97.409
X103.759Y-142.049
X104.267Y-147.447
X104.421Y-96.483
X104.457Y-116.459
X104.584Y-68.135
X104.724Y-86.487
X104.902Y-123.761
X104.965Y-100.203
X105.346Y-94.615
X105.346Y-95.758
X106.172Y-70.548
X106.807Y-75.946
X106.87Y-100.33
X107.061Y-142.113
X107.569Y-153.48
X108.204Y-106.934
X108.331Y-110.617
X108.394Y-90.424
X109.537Y-102.679
X109.664Y-93.218
X109.83Y-71.272
X109.982Y-81.788
X110.058Y-75.565
X110.426Y-106.68
X111.608Y-173.939
X111.862Y-78.308
X116.764Y-165.252
T2
X20.46Y-64.77
X20.46Y-175.26
X21.163Y-63.073
X21.163Y-66.467
X21.163Y-173.563
X21.163Y-176.957
X22.86Y-62.37
X22.86Y-67.17
X22.86Y-172.86
X22.86Y-177.66
X24.557Y-63.073
X24.557Y-66.467
X24.557Y-173.563
X24.557Y-176.957
X25.26Y-64.77
X25.26Y-175.26
X113.106Y-63.627
X113.809Y-61.93
X113.809Y-65.324
X114.44Y-175.26
X115.143Y-173.563
X115.143Y-176.957
X115.506Y-61.227
X115.506Y-66.027
X116.84Y-172.86
X116.84Y-177.66
X117.204Y-61.93
X117.204Y-65.324
X117.906Y-63.627
X118.537Y-173.563
X118.537Y-176.957
X119.24Y-175.26
T3
X49.085Y-74.867
X50.355Y-77.406
X51.625Y-74.867
X52.895Y-77.406
X54.165Y-74.867
X55.435Y-77.406
T4
X65.036Y-68.959
X65.036Y-71.499
X65.036Y-74.039
X65.036Y-76.579
X65.036Y-79.119
X65.036Y-81.659
X65.036Y-84.199
X65.036Y-86.739
X65.036Y-89.279
X65.036Y-91.819
X65.036Y-94.359
X65.036Y-96.899
X80.276Y-68.959
X80.276Y-71.499
X80.276Y-74.039
X80.276Y-76.579
X80.276Y-79.119
X80.276Y-81.659
X80.276Y-84.199
X80.276Y-86.739
X80.276Y-89.279
X80.276Y-91.819
X80.276Y-94.359
X80.276Y-96.899
T5
X52.261Y-140.906
X52.261Y-143.446
X52.261Y-145.987
X52.261Y-148.526
X52.261Y-153.606
X52.261Y-156.147
X52.261Y-158.686
X73.724Y-137.16
X73.724Y-139.7
X73.724Y-142.24
X73.724Y-144.78
X73.724Y-149.86
X73.724Y-152.4
X73.724Y-154.94
T6
X108.712Y-118.618
X108.712Y-121.158
X108.712Y-126.619
X108.712Y-129.159
T7
X21.958Y-71.895
X21.958Y-75.705
X21.958Y-79.515
X21.958Y-85.738
X21.958Y-89.548
X21.958Y-93.358
X21.958Y-99.581
X21.958Y-103.391
X21.958Y-107.201
X21.958Y-113.424
X21.958Y-117.234
X21.958Y-121.044
X27.305Y-138.303
X27.305Y-142.113
X27.305Y-145.923
X27.305Y-149.733
X27.305Y-153.543
X27.305Y-157.353
X39.37Y-71.945
X39.37Y-75.755
X39.37Y-79.566
X39.37Y-85.788
X39.37Y-89.599
X39.37Y-93.408
X39.37Y-99.631
X39.37Y-103.441
X39.37Y-107.251
X39.37Y-113.474
X39.37Y-117.284
X39.37Y-121.094
X66.802Y-175.514
X70.612Y-175.514
X115.506Y-70.358
X115.506Y-74.168
X115.506Y-80.391
X115.506Y-84.201
X115.506Y-90.424
X115.506Y-94.234
X115.506Y-98.044
X115.506Y-101.854
X115.506Y-105.664
X115.506Y-109.474
X115.506Y-113.284
X115.506Y-147.256
X115.506Y-151.066
X115.506Y-154.876
X115.506Y-158.686
X115.57Y-119.507
X115.57Y-123.317
X115.57Y-127.127
X115.57Y-130.937
X115.57Y-137.224
X115.57Y-141.034
T8
X22.86Y-64.77
X22.86Y-175.26
X115.506Y-63.627
X116.84Y-175.26
T0
M30
